<?xml version="1.0" encoding="utf-8"?>
<!-- Generator: Adobe Illustrator 19.0.0, SVG Export Plug-In . SVG Version: 6.00 Build 0)  -->
<svg version="1.1" id="Layer_1" xmlns="http://www.w3.org/2000/svg" xmlns:xlink="http://www.w3.org/1999/xlink" x="0px" y="0px"
	 viewBox="-247 368.9 100 105" style="enable-background:new -247 368.9 100 105;" xml:space="preserve">
<style type="text/css">
	.st0{fill:#F6B138;stroke:#000000;stroke-width:2;}
	.st1{fill:#F2902F;stroke:#000000;stroke-width:2;}
	.st2{fill:#6B5445;}
</style>
<path class="st0" d="M-215.6,377.5C-215.6,377.5-215.6,377.6-215.6,377.5l0.3,0.4l0.4-0.3c0,0,0,0,0,0c2.1-1.9,5.5-4.5,9.4-5.5
	c1-0.3,2,0.2,2.5,1.2c0.2,0.4,3.5,7.6,4.1,16.4L-215.6,377.5z M-215.6,377.5c-0.5-0.7-1.1-1.3-1.7-1.9L-215.6,377.5z M-156.4,437.2
	l-0.4,0.4l0.5,0.3c0.8,0.6,1.5,1.2,2.2,1.9c5.6,5.6,6.4,13.5,6.4,13.9c0.1,0.6-0.2,1.2-0.8,1.6c-6.1,3.8-12.8,3.4-16.9,2.7l-0.7-0.1
	l0.1,0.7c0.6,4.8-0.2,8.9-0.2,9.1l0,0c-0.2,0.9-1.1,1.5-2,1.3c-9.5-2.3-17.2-8.6-22.1-13.5l0,0l0,0l0,0l0,0
	c-0.4-0.4-0.9-0.9-1.2-1.3l-0.7-0.8l-0.1,1.1l-1.1,9.1c-0.1,0.6-0.4,1.1-0.9,1.3c-0.5,0.2-1.1,0.2-1.6-0.1c-6.4-4-12.5-5-17.9-2.9
	l0.2,0.5l-0.2-0.5c-3.5,1.3-5.6,3.6-6,4.1l0,0l0,0c-0.6,0.8-1.8,0.9-2.5,0.2c-0.1-0.1-0.2-0.2-0.2-0.3c0-0.1-0.1-0.2-0.1-0.3
	c-0.1-0.3-0.2-0.9-0.3-2.1c0-0.5-0.1-1.1-0.2-1.9c-0.2-2.7-0.6-7-1.3-14.3l0-0.4l-0.4,0l-17.7-1.6c-1.5-0.1-2-2-0.9-2.9l0,0
	c0.2-0.2,2.9-2.4,4.3-6.5c1.4-4.1,1.6-10.1-3-17.6l-0.4,0.3l0.4-0.3c-0.6-1,0-2.4,1.2-2.5h0l9.1-1.1l1.1-0.1l-0.8-0.7
	c-6.7-6.4-12.6-14.6-14.7-23.5c-0.2-0.9,0.3-1.8,1.3-2c0.2,0,4.2-0.9,9-0.2l0.7,0.1l-0.1-0.7c-0.8-4-1.2-10.8,2.7-16.9v0
	c0.3-0.5,0.9-0.8,1.5-0.8l0,0c0.3,0,8.2,0.8,13.8,6.4c0.7,0.7,1.3,1.5,1.9,2.3l0.3,0.5l0.4-0.4c2.1-1.9,5.6-4.7,9.5-5.7l0,0
	c0.8-0.2,1.6,0.2,1.9,0.9c0.2,0.4,3.7,8,4.1,17.1l0.1,1.6l0.9-1.4c4.3-7,10.8-15.9,18.3-21.1l0,0c0.8-0.6,1.9-0.3,2.4,0.5l0,0
	c0.1,0.2,2,3.6,3.3,8.6l0.2,0.7l0.6-0.4c4-2.9,11.7-7.3,21.4-6.3l0.1-0.5l-0.1,0.5c0.8,0.1,1.4,0.7,1.5,1.5c1,9.7-3.4,17.5-6.3,21.5
	l-0.4,0.6l0.7,0.2c4.9,1.3,8.4,3.3,8.5,3.4c0.8,0.5,1.1,1.6,0.5,2.4c-5.2,7.5-14,14-21,18.4l-1.4,0.9l1.6,0.1c9,0.4,16.6,3.9,17,4.1
	c0.7,0.3,1.1,1.1,0.9,1.9C-151.7,431.6-154.4,435.1-156.4,437.2z"/>
<path class="st1" d="M-242.7,418.3l0.4-0.3c-0.6-1,0-2.4,1.2-2.5h0l9.1-1.1l1.1-0.1l-0.8-0.7c-6.7-6.4-12.6-14.6-14.7-23.5
	c-0.2-0.9,0.3-1.8,1.3-2c0.2,0,4.2-0.9,9-0.2l0.7,0.1l-0.1-0.7c-0.8-4-1.2-10.8,2.7-16.9v0c0.3-0.5,0.9-0.8,1.5-0.8h0
	c0.3,0,8.2,0.8,13.8,6.4c0.7,0.7,1.3,1.5,1.9,2.3l0.3,0.5l0.4-0.4c2.1-1.9,5.6-4.7,9.5-5.7v0c0.8-0.2,1.6,0.2,1.9,0.9
	c0.1,0.2,0.7,1.5,1.4,3.6c-21.9,15.4-30.6,43.4-21.7,68.3l-1.3,1.3l-17.5-1.6c-1.5-0.1-2-2-0.9-2.9l0,0c0.2-0.2,2.9-2.4,4.3-6.5
	c1.4-4.1,1.6-10.1-3-17.6L-242.7,418.3z"/>
<path class="st2" d="M-187.5,435.1l0.7-0.6l4-3.4c0.4-0.4,0.5-1,0.1-1.5c-0.4-0.4-1-0.5-1.5-0.1c0,0,0,0,0,0l-5.6,4.7l-0.2,0.2
	l-0.3-0.1c-5.6-1.5-11.7-2.6-17.8-2.6l-1.2,0l0.9-0.9c3.4-3.4,8-7.8,11.1-10.7l0,0l0.6-0.6l0.4-0.4l0.1-0.1l0,0l0,0l0,0l0,0l0,0l0,0
	l0,0l0,0c0,0,0,0,0,0c1.3-1.2,2.6-2.4,3.9-3.6l0.2-0.1l0.2,0c9.4,0.4,9.4,0.4,9.5,0.4c0,0,0,0,0,0c0.6,0,1-0.4,1-1
	c0-0.6-0.4-1.1-1-1.1l-6.3-0.3l-1.2-0.1l0.9-0.8c10.7-9.5,18.4-15.7,18.5-15.8c0.5-0.4,0.5-1,0.2-1.5v0c-0.4-0.5-1-0.5-1.5-0.2l0,0
	c-0.1,0-3.4,2.7-8.6,7.1l-0.7,0.6l-0.1-1l-0.3-4.1c0-0.6-0.6-1-1.1-1h0c-0.6,0-1,0.6-1,1.1c0.2,2.4,0.3,3.9,0.4,4.7
	c0,0.2,0,0.4,0,0.6c0,0.4,0,0.6,0.1,0.7c0,0.1,0,0.1,0,0.2l0,0l0.1,0.3l-0.3,0.2c-4.4,3.8-8.9,7.8-13.2,11.8l-0.8,0.7l-0.1-1l-0.4-5
	c0-0.6-0.6-1-1.1-1l0,0c-0.6,0-1,0.6-1,1.1v0l0.6,7.5l0,0.2l-0.2,0.2c-3.3,3.1-6.5,6.2-9.8,9.4l-0.8,0.8l0-1.2
	c-0.1-5.6-1.2-11.1-2.5-16.2l-0.1-0.3l0.2-0.2l4.7-5.6c0,0,0,0,0,0c0.4-0.4,0.3-1.1-0.1-1.5c-0.4-0.4-1.1-0.3-1.5,0.1l-3.4,4
	l-0.6,0.7l-0.3-0.9c-2.8-9.1-6.3-15.7-6.5-16.2l0,0c-0.3-0.5-0.9-0.7-1.4-0.4h0c-0.5,0.3-0.7,0.9-0.4,1.4l0,0
	c0.1,0.2,6.2,11.9,8.8,25.4l0.2,1l-0.9-0.5l-4.1-2.2l0,0c-0.5-0.3-1.1-0.1-1.4,0.4l0,0c-0.3,0.5-0.1,1.2,0.4,1.4
	c2.5,1.4,3.9,2.2,4.8,2.6c0.2,0.1,0.4,0.2,0.5,0.3c0.7,0.4,0.7,0.4,0.8,0.4c0,0,0,0,0,0l0.3,0.1l0,0.3c0.4,2.9,0.6,5.9,0.5,8.9
	l0,0.2l-0.1,0.1c-1.2,1.2-2.4,2.4-3.6,3.7l-0.2,0.2l-0.3-0.1c-2.1-0.9-6.1-2.5-10.7-3.4l0,0c-0.6-0.1-1.1,0.3-1.2,0.8
	c-0.1,0.6,0.3,1.1,0.8,1.2h0c3.7,0.7,7.1,1.9,9.2,2.8l0.7,0.3l-0.5,0.5c-10,10.5-20.1,22.4-27.5,34h0c-0.3,0.5-0.2,1.1,0.3,1.5
	c0.2,0.1,0.4,0.2,0.6,0.2c0.3,0,0.7-0.2,0.9-0.5l0.4,0.3l-0.4-0.3c7.5-11.6,17.6-23.4,27.5-33.9l0.5-0.6l0.3,0.7
	c0.9,2,2.3,5.9,3.2,10.3v0c0.1,0.5,0.5,0.9,1,0.9c0.7,0,1.2-0.6,1-1.3c-1.1-5.7-3.2-10.4-3.9-11.9l-0.1-0.3l0.2-0.2
	c0.8-0.8,1.6-1.6,2.4-2.4l0.2-0.2l0.2,0c0,0,0.1,0,0.3,0c0.1,0,0.3,0,0.5,0l0.1,0c0.5,0,1.2-0.1,2.1-0.1c1.8,0,4.3,0.1,7.6,0.5
	l0.3,0l0.1,0.3c0,0,0,0,0,0c0,0.1,0,0.1,0.4,0.8c0.1,0.2,0.2,0.3,0.3,0.6c0.5,0.9,1.3,2.3,2.6,4.7c0.3,0.5,0.9,0.7,1.4,0.4l0,0
	c0.5-0.3,0.7-0.9,0.4-1.4h0l-2.2-4.1l-0.5-0.9l1,0.2c13.4,2.6,25.1,8.7,25.3,8.8c0.5,0.3,1.1,0.1,1.4-0.4L-187.5,435.1z
	 M-187.5,435.1l0.9,0.3 M-187.5,435.1l0.9,0.3 M-186.6,435.4c9,2.8,15.7,6.3,16.1,6.6 M-186.6,435.4l16.1,6.6 M-170.5,442
	c0.5,0.3,0.7,0.9,0.4,1.4L-170.5,442z"/>
</svg>
