<svg width="35" height="33" viewBox="0 0 35 33" fill="none" xmlns="http://www.w3.org/2000/svg">
<path d="M11.1721 21.1465L11.2618 26.2844C11.2693 26.7171 11.5413 27.1005 11.9474 27.2484C12.0711 27.2937 12.1999 27.3152 12.3269 27.313C12.6158 27.3079 12.8971 27.183 13.0956 26.9561L16.5043 23.0696L11.1721 21.1465Z" fill="#EA8C5C"/>
<path d="M33.169 0.700261C32.8711 0.433196 32.4454 0.359646 32.0738 0.511337L0.881591 13.2727C0.480934 13.436 0.22253 13.8301 0.231501 14.2642C0.240473 14.6982 0.515214 15.0802 0.922674 15.2267L9.63826 18.3682L28.243 5.97599L12.9542 19.5628L25.8625 24.2159C25.9833 24.2584 26.1107 24.28 26.2364 24.2778C26.3941 24.275 26.5512 24.2374 26.6951 24.1636C26.9539 24.0307 27.1453 23.7984 27.2256 23.5205L33.4781 1.76996C33.5872 1.38409 33.4683 0.968697 33.169 0.700261Z" fill="#EA8C5C"/>
<path d="M11.9793 28.5115C11.7155 28.5161 11.4448 28.4454 11.2048 28.2919C10.5553 27.8773 10.3643 27.0136 10.7802 26.3641C11.1634 25.7626 11.3834 25.3246 11.3982 25.2936C11.7408 24.6035 12.5736 24.3195 13.265 24.6592C13.9551 24.9976 14.2419 25.8332 13.9049 26.5246C13.9049 26.5246 13.6313 27.0865 13.1339 27.8658C12.8716 28.2767 12.433 28.5036 11.9793 28.5115Z" fill="#EA8C5C"/>
<path d="M6.48636 32.6508C5.63073 32.6657 4.8934 32.5781 4.23516 32.3829C3.49554 32.1641 3.07288 31.3868 3.29177 30.6485C3.512 29.9075 4.29217 29.4889 5.02616 29.7051C5.60721 29.8779 6.44876 30.0168 7.34751 29.673C8.06605 29.4035 8.87367 29.758 9.15014 30.4793C9.4252 31.1991 9.06511 32.0068 8.34387 32.2819C7.73222 32.516 7.10609 32.64 6.48636 32.6508Z" fill="#EA8C5C"/>
<path d="M1.90513 27.8453C1.17653 27.8581 0.55251 27.3035 0.490746 26.5646C0.453322 26.1003 0.429321 25.605 0.420112 25.0774C0.406641 24.3056 1.01967 23.6708 1.79155 23.6573C2.56342 23.6438 3.19823 24.2568 3.2117 25.0287C3.21977 25.4907 3.23995 25.9274 3.27359 26.3345C3.33726 27.1027 2.76541 27.7773 1.99721 27.841C1.96652 27.8429 1.93723 27.8448 1.90513 27.8453Z" fill="#EA8C5C"/>
</svg>
