<svg width="107" height="128" viewBox="0 0 107 128" fill="none" xmlns="http://www.w3.org/2000/svg" style="" class="start">
<path d="M53.2238 51.7128C64.3963 51.7128 73.4534 42.6563 73.4534 31.4845C73.4534 20.3127 64.3963 11.2562 53.2238 11.2562C42.0513 11.2562 32.9943 20.3127 32.9943 31.4845C32.9943 42.6563 42.0513 51.7128 53.2238 51.7128Z" fill="#18728F" stroke="#010202" stroke-width="3" stroke-miterlimit="10" class="efgLZnzS_0"></path>
<path d="M102.895 42.6823C102.895 42.6823 100.246 35.6987 90.2513 35.6987C84.2306 35.6987 78.9926 39.6721 75.2598 43.4649C68.6972 39.5517 60.9907 37.264 52.7423 37.264C44.8552 37.264 37.4498 39.3711 31.0678 42.9833C27.2748 39.1905 22.0368 35.4579 15.9559 35.0967C6.14218 34.6151 3.31246 42.0803 3.31246 42.0803C3.31246 42.0803 -2.22657 55.2648 9.45357 72.9043C8.91171 75.6135 8.61066 78.443 8.61066 81.3328C8.61066 105.715 28.3585 125.462 52.7423 125.462C77.1262 125.462 96.874 105.715 96.874 81.3328C96.874 78.9247 96.6934 76.5165 96.272 74.2288C108.614 56.228 102.895 42.6823 102.895 42.6823Z" fill="white" stroke="#010202" stroke-width="4" stroke-miterlimit="10" class="efgLZnzS_1"></path>
<path d="M15.2935 65.9809C15.2935 65.9809 19.4478 54.3617 26.1308 49.1842C26.1308 49.1842 21.3143 41.1772 14.8721 40.9364C8.42997 40.7558 8.12892 44.669 8.12892 44.669C8.12892 44.669 4.09503 54.1811 15.2935 65.9809Z" fill="#FBDDDD" stroke="#E5717B" stroke-opacity="0.4" stroke-width="3" stroke-miterlimit="10" class="efgLZnzS_2"></path>
<path d="M90.5523 67.3054C90.5523 67.3054 86.3981 55.6862 79.7151 50.5087C79.7151 50.5087 84.5317 42.5016 90.9738 42.2608C97.4159 42.0802 97.717 45.9934 97.717 45.9934C97.717 45.9934 101.691 55.5657 90.5523 67.3054Z" fill="#FBDDDD" stroke="#E5717B" stroke-opacity="0.4" stroke-width="3" stroke-miterlimit="10" class="efgLZnzS_3"></path>
<path d="M56.716 78.2623H47.7452C45.939 78.2623 44.9155 80.4297 46.1798 81.8143L50.6351 86.8714C51.478 87.8346 52.9832 87.8346 53.8261 86.8714L58.2814 81.8143C59.4855 80.4297 58.5222 78.2623 56.716 78.2623Z" fill="#010202" class="efgLZnzS_4"></path>
<path d="M52.3812 86.45V96.2631C52.3812 96.2631 59.7867 102.765 65.3258 97.3467" stroke="#010202" stroke-width="5" stroke-miterlimit="10" class="efgLZnzS_5"></path>
<path d="M52.2006 86.45V96.2631C52.2006 96.2631 44.7951 102.765 39.2561 97.3467" stroke="#010202" stroke-width="5" stroke-miterlimit="10" class="efgLZnzS_6"></path>
<path d="M33.717 81.995C36.7762 81.995 39.2561 78.3562 39.2561 73.8676C39.2561 69.3789 36.7762 65.7401 33.717 65.7401C30.6579 65.7401 28.178 69.3789 28.178 73.8676C28.178 78.3562 30.6579 81.995 33.717 81.995Z" fill="#010202" class="efgLZnzS_7"></path>
<path d="M70.8649 81.995C73.924 81.995 76.4039 78.3562 76.4039 73.8676C76.4039 69.3789 73.924 65.7401 70.8649 65.7401C67.8057 65.7401 65.3258 69.3789 65.3258 73.8676C65.3258 78.3562 67.8057 81.995 70.8649 81.995Z" fill="#010202" class="efgLZnzS_8"></path>
<path d="M59.2447 12.1593H47.2033C46.7217 11.6175 46.4809 10.9552 46.4809 10.293C46.4809 10.0522 46.4808 9.87158 46.541 9.63076C46.6013 9.45016 46.6012 9.20934 46.6012 8.96853C46.6012 8.72772 46.6013 8.54711 46.541 8.30629C46.3002 7.28284 46.6615 6.19918 47.4442 5.53695C47.7452 5.23593 48.0462 4.87471 48.2268 4.51349C48.6483 3.55023 49.5514 2.888 50.5749 2.8278C50.9964 2.76759 51.4178 2.64719 51.7791 2.40637C52.6822 1.86454 53.7659 1.86454 54.669 2.40637C54.97 2.58698 55.3313 2.70739 55.6925 2.7676C55.7527 2.7676 55.8129 2.7676 55.8731 2.7676C56.8966 2.8278 57.7998 3.49003 58.2212 4.45328C58.4018 4.87471 58.6426 5.23593 59.0039 5.47674C59.7866 6.13898 60.1478 7.22264 59.907 8.24609C59.8468 8.48691 59.8468 8.66751 59.8468 8.90833C59.8468 9.14914 59.8468 9.32975 59.907 9.57056C60.0876 10.5338 59.8468 11.4971 59.2447 12.1593Z" fill="#15718F" class="efgLZnzS_9"></path>
<path d="M59.2447 12.1593H52.1402C51.6585 11.6174 51.4177 10.9552 51.4177 10.293C51.4177 10.0522 51.4177 9.87154 51.4779 9.63073C51.5381 9.45012 51.5381 9.2093 51.5381 8.96849C51.5381 8.72768 51.5381 8.54707 51.4779 8.30626C51.2371 7.2828 51.5984 6.19914 52.381 5.53691C52.6821 5.23589 52.9831 4.87467 53.1637 4.51345C53.5852 3.5502 54.4883 2.88796 55.5118 2.82776C55.572 2.82776 55.6322 2.82776 55.6925 2.82776C55.7527 2.82776 55.8129 2.82776 55.8731 2.82776C56.8966 2.88796 57.7997 3.5502 58.2212 4.51345C58.4018 4.93487 58.6426 5.29609 59.0039 5.53691C59.7865 6.19914 60.1478 7.2828 59.907 8.30626C59.8468 8.54707 59.8467 8.72768 59.8467 8.96849C59.8467 9.2093 59.8468 9.38991 59.907 9.63073C60.0876 10.5338 59.8467 11.497 59.2447 12.1593Z" fill="#4795BC" class="efgLZnzS_10"></path>
<path d="M71.9485 46.2342C72.0689 46.174 72.2495 46.174 72.4301 46.1138C73.574 45.7526 74.4771 44.7894 74.718 43.5853L76.2231 36.9629C76.3435 36.4813 76.3435 35.9997 76.2231 35.4579C76.0425 34.5548 75.5006 33.1701 73.9955 32.6885C71.7678 31.9661 53.2843 28.9559 32.7537 32.6885C31.2485 32.9293 30.1046 34.1936 29.924 35.6385V35.6987C29.8638 36.0599 29.924 36.4211 29.9842 36.7823C30.2852 38.1068 31.1281 41.8996 31.4894 43.4649C31.8506 44.97 33.115 46.1138 34.6201 46.174C34.7405 46.174 34.8007 46.174 34.9212 46.174C37.4499 46.174 48.5279 42.321 70.3831 46.174C70.9249 46.3546 71.4668 46.3546 71.9485 46.2342Z" fill="#4795BC" stroke="#010202" stroke-width="3" stroke-miterlimit="10" class="efgLZnzS_11"></path>
<path d="M46.6613 12.0991C46.6613 12.0991 45.9388 10.6542 46.4807 9.45013C46.4807 9.45013 45.8184 7.88484 46.3 7.1624C46.3 7.1624 46.4807 6.31956 47.2031 5.77773C47.444 5.59712 47.6246 5.2961 47.745 4.99509C47.8654 4.51346 48.1665 3.85122 48.9492 3.49C48.9492 3.49 49.7318 2.88797 50.8156 3.00838C50.8156 3.00838 51.4779 1.92472 53.1035 2.16553C53.1035 2.16553 53.9464 1.98492 54.7893 2.64716C54.9699 2.76756 55.2107 2.82777 55.3913 2.82777C55.8128 2.76757 56.4148 2.82777 56.9567 3.3696C56.9567 3.3696 58.1609 3.61041 58.4017 5.05529C58.4017 5.05529 59.5456 5.53692 59.8466 7.042C59.8466 7.042 60.3885 7.88484 59.9069 9.26952C59.9069 9.26952 60.6896 10.5338 59.7263 12.2797C59.7865 12.1593 54.4882 10.1726 46.6613 12.0991Z" stroke="#010202" stroke-width="3" stroke-miterlimit="10" class="efgLZnzS_12"></path>
<path d="M68.6368 31.8457C68.6368 31.8457 70.142 18.0591 58.4618 11.798" stroke="#010202" stroke-width="3" stroke-miterlimit="10" class="efgLZnzS_13"></path>
<path d="M62.8571 31.4845C62.8571 31.4845 64.5429 16.1929 57.1375 11.5573" stroke="#010202" stroke-width="3" stroke-miterlimit="10" class="efgLZnzS_14"></path>
<path d="M37.8712 31.8457C37.8712 31.8457 36.366 18.0591 48.0462 11.798" stroke="#010202" stroke-width="3" stroke-miterlimit="10" class="efgLZnzS_15"></path>
<path d="M43.6511 31.4845C43.6511 31.4845 41.9653 16.1929 49.3707 11.5573" stroke="#010202" stroke-width="3" stroke-miterlimit="10" class="efgLZnzS_16"></path>
</svg>
