<svg width="126" height="126" viewBox="0 0 126 126" fill="none" xmlns="http://www.w3.org/2000/svg">
<path d="M24.236 24.2361C28.6978 19.7743 28.6978 12.5404 24.236 8.07871C19.7743 3.61698 12.5404 3.61698 8.07868 8.07871C3.61695 12.5404 3.61695 19.7743 8.07868 24.2361C12.5404 28.6978 19.7743 28.6978 24.236 24.2361Z" fill="#FFDC32"/>
<path d="M16.5 126C14.5671 126 13 124.397 13 122.42V95.5798C13 93.6028 14.5671 92 16.5 92C18.4329 92 20 93.6028 20 95.5798V122.42C20 124.397 18.4329 126 16.5 126Z" fill="#FFB400"/>
<path d="M16.1597 27.5841V4.73065C22.4605 4.73065 27.5864 9.85679 27.5864 16.1574C27.5864 22.4579 22.4605 27.5841 16.1597 27.5841Z" fill="#FFB400"/>
<path d="M121.04 27H17C14.7909 27 13 28.7909 13 31V95.36C13 97.5691 14.7909 99.36 17 99.36H121.04C123.249 99.36 125.04 97.5691 125.04 95.36V31C125.04 28.7909 123.249 27 121.04 27Z" fill="#6DA544"/>
<path d="M68.0199 36.7818L105 63.1788L68.0199 89.5759L31.0398 63.1788L68.0199 36.7818Z" fill="#FFDA44"/>
<path d="M68.0203 78.2627C76.6196 78.2627 83.5907 71.5094 83.5907 63.1789C83.5907 54.8483 76.6196 48.0951 68.0203 48.0951C59.421 48.0951 52.45 54.8483 52.45 63.1789C52.45 71.5094 59.421 78.2627 68.0203 78.2627Z" fill="#F0F0F0"/>
<path d="M60.2346 62.2362C57.527 62.2362 54.9141 62.6353 52.4543 63.3753C52.5633 71.6149 59.4887 78.2629 68.0198 78.2629C73.2949 78.2629 77.9541 75.7191 80.7704 71.831C75.9526 65.9874 68.5378 62.2362 60.2346 62.2362Z" fill="#0052B4"/>
<path d="M83.3021 66.0689C83.4896 65.133 83.591 64.1677 83.591 63.1788C83.591 54.8482 76.6197 48.0948 68.0204 48.0948C61.6037 48.0948 56.0957 51.8558 53.7117 57.2253C55.8187 56.8026 58.0005 56.5796 60.2349 56.5796C69.2788 56.5799 77.4601 60.2214 83.3021 66.0689Z" fill="#0052B4"/>
</svg>
