<svg width="113" height="73" viewBox="0 0 113 73" fill="none" xmlns="http://www.w3.org/2000/svg">
<path d="M108.04 0H4C1.79086 0 0 1.79086 0 3.99999V68.36C0 70.5691 1.79086 72.36 4 72.36H108.04C110.249 72.36 112.04 70.5691 112.04 68.36V4C112.04 1.79086 110.249 0 108.04 0Z" fill="#6DA544"/>
<path d="M55.0199 9.78177L92 36.1788L55.0199 62.5759L18.0398 36.1788L55.0199 9.78177Z" fill="#FFDA44"/>
<path d="M55.0203 51.2627C63.6196 51.2627 70.5907 44.5094 70.5907 36.1789C70.5907 27.8483 63.6196 21.0951 55.0203 21.0951C46.421 21.0951 39.45 27.8483 39.45 36.1789C39.45 44.5094 46.421 51.2627 55.0203 51.2627Z" fill="#F0F0F0"/>
<path d="M47.2346 35.2362C44.527 35.2362 41.9141 35.6353 39.4543 36.3753C39.5633 44.6149 46.4887 51.2629 55.0198 51.2629C60.2949 51.2629 64.9541 48.7191 67.7704 44.831C62.9526 38.9874 55.5378 35.2362 47.2346 35.2362Z" fill="#0052B4"/>
<path d="M70.3021 39.0689C70.4896 38.1329 70.591 37.1676 70.591 36.1788C70.591 27.8482 63.6197 21.0948 55.0204 21.0948C48.6037 21.0948 43.0957 24.8558 40.7117 30.2252C42.8187 29.8026 45.0005 29.5796 47.2349 29.5796C56.2788 29.5798 64.4601 33.2213 70.3021 39.0689Z" fill="#0052B4"/>
</svg>
