<svg width="108" height="108" viewBox="0 0 108 108" fill="none" xmlns="http://www.w3.org/2000/svg">
<path d="M20.7659 20.7659C24.5888 16.943 24.5888 10.7449 20.7659 6.92199C16.943 3.09909 10.7449 3.09909 6.92197 6.92199C3.09907 10.7449 3.09907 16.943 6.92197 20.7659C10.7449 24.5888 16.943 24.5888 20.7659 20.7659Z" fill="#FFDC32"/>
<path d="M14.1375 107.959C12.4814 107.959 11.1387 106.586 11.1387 104.892V81.8946C11.1387 80.2007 12.4814 78.8274 14.1375 78.8274C15.7937 78.8274 17.1364 80.2007 17.1364 81.8946V104.892C17.1364 106.586 15.7937 107.959 14.1375 107.959Z" fill="#FFB400"/>
<path d="M13.8459 23.6346V4.05331C19.2446 4.05331 23.6366 8.44549 23.6366 13.8439C23.6366 19.2424 19.2446 23.6346 13.8459 23.6346Z" fill="#FFB400"/>
<path d="M103.055 22.0533H15.0552C12.846 22.0533 11.0552 23.8442 11.0552 26.0533V80.0533C11.0552 82.2624 12.846 84.0533 15.0552 84.0533H103.055C105.264 84.0533 107.055 82.2624 107.055 80.0533V26.0533C107.055 23.8442 105.264 22.0533 103.055 22.0533Z" fill="#F0F0F0"/>
<path d="M107.055 29.7668H11.0552V37.4807H107.055V29.7668Z" fill="#D80027"/>
<path d="M107.055 45.1967H11.0554V52.9106H107.055V45.1967Z" fill="#D80027"/>
<path d="M107.055 60.6246H11.0554V68.3386H107.055V60.6246Z" fill="#D80027"/>
<path d="M107.055 76.4095H11.0552V80.0533C11.0552 82.2625 12.846 84.0533 15.0552 84.0533H103.055C105.264 84.0533 107.055 82.2625 107.055 80.0533V76.4095Z" fill="#D80027"/>
<path d="M58.7745 22.0533H15.0552C12.846 22.0533 11.0552 23.8442 11.0552 26.0533V55.0774H58.7745V22.0533Z" fill="#2E52B2"/>
<path d="M27.7294 35.6666L26.9563 37.96H24.4558L26.4791 39.3767L25.7061 41.6699L27.7294 40.2532L29.7514 41.6699L28.9785 39.3767L31.0018 37.96H28.5011L27.7294 35.6666Z" fill="#F0F0F0"/>
<path d="M28.5011 46.2361L27.7294 43.9429L26.9563 46.2361H24.4558L26.4791 47.653L25.7061 49.9462L27.7294 48.5294L29.7514 49.9462L28.9785 47.653L31.0018 46.2361H28.5011Z" fill="#F0F0F0"/>
<path d="M17.9337 46.2361L17.1617 43.9429L16.3887 46.2361H13.8882L15.9115 47.653L15.1384 49.9462L17.1617 48.5294L19.1839 49.9462L18.411 47.653L20.434 46.2361H17.9337Z" fill="#F0F0F0"/>
<path d="M17.1617 35.6666L16.3887 37.96H13.8882L15.9115 39.3767L15.1384 41.6699L17.1617 40.2532L19.1839 41.6699L18.411 39.3767L20.434 37.96H17.9337L17.1617 35.6666Z" fill="#F0F0F0"/>
<path d="M27.7294 27.3901L26.9563 29.6837H24.4558L26.4791 31.1005L25.7061 33.3938L27.7294 31.9769L29.7514 33.3938L28.9785 31.1005L31.0018 29.6837H28.5011L27.7294 27.3901Z" fill="#F0F0F0"/>
<path d="M17.1617 27.3901L16.3887 29.6837H13.8882L15.9115 31.1005L15.1384 33.3938L17.1617 31.9769L19.1839 33.3938L18.411 31.1005L20.434 29.6837H17.9337L17.1617 27.3901Z" fill="#F0F0F0"/>
<path d="M38.2973 35.6666L37.5244 37.96H35.0239L37.047 39.3767L36.2744 41.6699L38.2973 40.2532L40.3197 41.6699L39.5466 39.3767L41.5699 37.96H39.0694L38.2973 35.6666Z" fill="#F0F0F0"/>
<path d="M39.0694 46.2361L38.2973 43.9429L37.5244 46.2361H35.0239L37.047 47.653L36.2744 49.9462L38.2973 48.5294L40.3197 49.9462L39.5466 47.653L41.5699 46.2361H39.0694Z" fill="#F0F0F0"/>
<path d="M49.6371 46.2361L48.8652 43.9429L48.0921 46.2361H45.5918L47.6147 47.653L46.8419 49.9462L48.8652 48.5294L50.8873 49.9462L50.1143 47.653L52.1376 46.2361H49.6371Z" fill="#F0F0F0"/>
<path d="M48.8652 35.6666L48.0921 37.96H45.5918L47.6147 39.3767L46.8419 41.6699L48.8652 40.2532L50.8873 41.6699L50.1143 39.3767L52.1376 37.96H49.6371L48.8652 35.6666Z" fill="#F0F0F0"/>
<path d="M38.2973 27.3901L37.5244 29.6837H35.0239L37.047 31.1005L36.2744 33.3938L38.2973 31.9769L40.3197 33.3938L39.5466 31.1005L41.5699 29.6837H39.0694L38.2973 27.3901Z" fill="#F0F0F0"/>
<path d="M48.8652 27.3901L48.0921 29.6837H45.5918L47.6147 31.1005L46.8419 33.3938L48.8652 31.9769L50.8873 33.3938L50.1143 31.1005L52.1376 29.6837H49.6371L48.8652 27.3901Z" fill="#F0F0F0"/>
</svg>
