<svg width="113" height="73" viewBox="0 0 113 73" fill="none" xmlns="http://www.w3.org/2000/svg">
<path d="M108.042 0H4C1.79086 0 0 1.79086 0 4V68.3606C0 70.5697 1.79086 72.3606 4 72.3606H108.042C110.251 72.3606 112.042 70.5697 112.042 68.3606V4C112.042 1.79086 110.251 0 108.042 0Z" fill="#F0F0F0"/>
<path d="M112.042 9.00241H0V18.0054H112.042V9.00241Z" fill="#D80027"/>
<path d="M112.042 27.0108H0.000244141V36.0138H112.042V27.0108Z" fill="#D80027"/>
<path d="M112.042 45.0168H0.000244141V54.0199H112.042V45.0168Z" fill="#D80027"/>
<path d="M112.042 63.4395H0V68.3606C0 70.5698 1.79086 72.3606 4 72.3606H108.042C110.251 72.3606 112.042 70.5698 112.042 68.3606V63.4395Z" fill="#D80027"/>
<path d="M55.6935 0H4C1.79086 0 0 1.79087 0 4.00001V38.5427H55.6935V0Z" fill="#2E52B2"/>
<path d="M19.4605 15.8882L18.5582 18.5648H15.6399L18.0013 20.2182L17.0991 22.8947L19.4605 21.2413L21.8204 22.8947L20.9183 20.2182L23.2798 18.5648H20.3612L19.4605 15.8882Z" fill="#F0F0F0"/>
<path d="M20.3612 28.224L19.4605 25.5475L18.5582 28.224H15.6399L18.0013 29.8776L17.0991 32.554L19.4605 30.9004L21.8204 32.554L20.9183 29.8776L23.2798 28.224H20.3612Z" fill="#F0F0F0"/>
<path d="M8.02792 28.224L7.12698 25.5475L6.22474 28.224H3.3064L5.66781 29.8776L4.76557 32.554L7.12698 30.9004L9.48709 32.554L8.58506 29.8776L10.946 28.224H8.02792Z" fill="#F0F0F0"/>
<path d="M7.12698 15.8882L6.22474 18.5648H3.3064L5.66781 20.2182L4.76557 22.8947L7.12698 21.2413L9.48709 22.8947L8.58506 20.2182L10.946 18.5648H8.02792L7.12698 15.8882Z" fill="#F0F0F0"/>
<path d="M19.4605 6.22864L18.5582 8.90551H15.6399L18.0013 10.5591L17.0991 13.2356L19.4605 11.582L21.8204 13.2356L20.9183 10.5591L23.2798 8.90551H20.3612L19.4605 6.22864Z" fill="#F0F0F0"/>
<path d="M7.12698 6.22864L6.22474 8.90551H3.3064L5.66781 10.5591L4.76557 13.2356L7.12698 11.582L9.48709 13.2356L8.58506 10.5591L10.946 8.90551H8.02792L7.12698 6.22864Z" fill="#F0F0F0"/>
<path d="M31.7945 15.8882L30.8925 18.5648H27.9741L30.3353 20.2182L29.4335 22.8947L31.7945 21.2413L34.1548 22.8947L33.2526 20.2182L35.614 18.5648H32.6956L31.7945 15.8882Z" fill="#F0F0F0"/>
<path d="M32.6956 28.224L31.7945 25.5475L30.8925 28.224H27.9741L30.3353 29.8776L29.4335 32.554L31.7945 30.9004L34.1548 32.554L33.2526 29.8776L35.614 28.224H32.6956Z" fill="#F0F0F0"/>
<path d="M45.0292 28.224L44.1282 25.5475L43.226 28.224H40.3079L42.6688 29.8776L41.7668 32.554L44.1282 30.9004L46.4883 32.554L45.5861 29.8776L47.9475 28.224H45.0292Z" fill="#F0F0F0"/>
<path d="M44.1282 15.8882L43.226 18.5648H40.3079L42.6688 20.2182L41.7668 22.8947L44.1282 21.2413L46.4883 22.8947L45.5861 20.2182L47.9475 18.5648H45.0292L44.1282 15.8882Z" fill="#F0F0F0"/>
<path d="M31.7945 6.22864L30.8925 8.90551H27.9741L30.3353 10.5591L29.4335 13.2356L31.7945 11.582L34.1548 13.2356L33.2526 10.5591L35.614 8.90551H32.6956L31.7945 6.22864Z" fill="#F0F0F0"/>
<path d="M44.1282 6.22864L43.226 8.90551H40.3079L42.6688 10.5591L41.7668 13.2356L44.1282 11.582L46.4883 13.2356L45.5861 10.5591L47.9475 8.90551H45.0292L44.1282 6.22864Z" fill="#F0F0F0"/>
</svg>
