<svg width="94" height="94" viewBox="0 0 94 94" fill="none" xmlns="http://www.w3.org/2000/svg">
<g clip-path="url(#clip0)">
<path d="M35.8755 66.253C14.5158 103.249 -17.9598 47 24.7596 47C-17.9598 47 14.5156 -9.2492 35.8755 27.747C14.5158 -9.24901 79.4666 -9.24901 58.1069 27.747C79.4666 -9.2492 111.942 47 69.2228 47C111.942 47 79.4666 103.249 58.1069 66.253C79.4666 103.249 14.5158 103.249 35.8755 66.253Z" fill="#FF728B"/>
<path d="M69.2226 46.9728L47.5587 46.6815L47.5695 46.6635L47.5521 46.6638L58.1069 27.747C79.4666 -9.24901 14.5158 -9.24901 35.8755 27.747L46.432 46.6666L46.4116 46.6664L46.4224 46.6844L24.76 47.074C-17.9591 47.2157 14.7027 103.357 35.9394 66.29L46.9828 47.654L46.9912 47.6692L47.0011 47.6514L58.1304 66.2396C79.5347 103.21 111.942 46.9211 69.2226 46.9728Z" fill="#FF3F62"/>
<path d="M46.9911 76.1592C46.1965 76.1592 45.5522 76.8034 45.5522 77.598V83.6408C45.5522 84.4354 46.1965 85.0796 46.9911 85.0796C47.7857 85.0796 48.4299 84.4354 48.4299 83.6408V77.5978C48.4297 76.8032 47.7857 76.1592 46.9911 76.1592Z" fill="#FF0C38"/>
<path d="M24.1478 29.8826L27.8525 32.9574C28.1211 33.1805 28.4468 33.2892 28.7707 33.2892C29.184 33.2892 29.5941 33.1122 29.8785 32.7693C30.3861 32.1577 30.3019 31.2508 29.6903 30.7433L25.9856 27.6685C25.374 27.1608 24.4671 27.2451 23.9596 27.8567C23.4521 28.468 23.5364 29.3752 24.1478 29.8826Z" fill="#FF0C38"/>
<path d="M21.8985 58.9694L16.5801 61.8492C15.8812 62.2276 15.6218 63.1008 16 63.7995C16.2605 64.2805 16.7555 64.5534 17.2664 64.5534C17.4977 64.5534 17.7324 64.4974 17.9501 64.3795L23.2685 61.4996C23.9672 61.1213 24.2268 60.2481 23.8486 59.5493C23.4704 58.8507 22.5973 58.5908 21.8985 58.9694Z" fill="#FF0C38"/>
<path d="M72.8962 68.1401L69.0622 64.7216C68.4692 64.1928 67.5595 64.2448 67.0309 64.838C66.5022 65.4312 66.5541 66.3407 67.1473 66.8693L70.9813 70.2878C71.2556 70.5323 71.5975 70.6526 71.9384 70.6526C72.3342 70.6526 72.7286 70.4901 73.0128 70.1712C73.5414 69.5786 73.4894 68.669 72.8962 68.1401Z" fill="#FF0C38"/>
<path d="M72.4191 54.4681L50.2997 46.6334L72.7068 32.4856C73.3786 32.0615 73.5794 31.1729 73.1553 30.5008C72.7312 29.8288 71.8424 29.6282 71.1705 30.0523L48.4632 44.3897V22.9244C48.4632 22.1298 47.819 21.4856 47.0244 21.4856C46.2298 21.4856 45.5855 22.1298 45.5855 22.9244V43.9362L33.4233 33.842C32.8118 33.3344 31.9047 33.4187 31.3974 34.0302C30.8897 34.6418 30.9742 35.5487 31.5856 36.0562L39.8223 42.8925L20.3081 35.9031C19.5607 35.6354 18.7365 36.0242 18.4685 36.7724C18.2005 37.5203 18.5897 38.3441 19.3378 38.612L43.5071 47.2686L28.0861 55.6189C27.3871 55.9973 27.1277 56.8704 27.5059 57.5692C27.7664 58.0502 28.2614 58.323 28.7724 58.323C29.0037 58.323 29.2385 58.267 29.4561 58.1492L45.544 49.4376L45.5519 71.5557C45.5521 72.3502 46.1963 72.994 46.9908 72.994H46.9911C47.7859 72.9939 48.4298 72.3494 48.4296 71.5548L48.4219 50.1742L63.4494 63.5731C63.7237 63.8176 64.0656 63.9379 64.4065 63.9379C64.8025 63.9379 65.1967 63.7754 65.4811 63.4565C66.0098 62.8633 65.9579 61.9538 65.3647 61.4252L53.4514 50.803L71.4583 57.1811C71.6172 57.2372 71.7793 57.2639 71.9386 57.2639C72.5309 57.2639 73.0859 56.8954 73.2948 56.3051C73.5603 55.5559 73.1682 54.7334 72.4191 54.4681Z" fill="#FF0C38"/>
<path d="M47.0248 17.6489C47.8194 17.6489 48.4636 17.0047 48.4636 16.2101V10.1337C48.4636 9.33906 47.8194 8.69482 47.0248 8.69482C46.2302 8.69482 45.5859 9.33906 45.5859 10.1337V16.2101C45.5861 17.0047 46.2302 17.6489 47.0248 17.6489Z" fill="#FF0C38"/>
<path d="M47.0253 58.2225C53.2233 58.2225 58.2478 53.1979 58.2478 46.9999C58.2478 40.8019 53.2233 35.7773 47.0253 35.7773C40.8272 35.7773 35.8027 40.8019 35.8027 46.9999C35.8027 53.1979 40.8272 58.2225 47.0253 58.2225Z" fill="#FFEB99"/>
<path d="M41.491 47C41.491 41.7848 45.0487 37.4017 49.8689 36.1422C48.9603 35.9046 48.0073 35.7776 47.0243 35.7776C40.8262 35.7776 35.8018 40.802 35.8018 47.0001C35.8018 53.1983 40.8262 58.2227 47.0243 58.2227C48.0073 58.2227 48.9603 58.0955 49.8689 57.8581C45.0487 56.5984 41.491 52.2151 41.491 47Z" fill="#FFDA44"/>
</g>
<defs>
<clipPath id="clip0">
<rect width="94" height="94" fill="white"/>
</clipPath>
</defs>
</svg>
