<svg width="30" height="29" viewBox="0 0 30 29" fill="none" xmlns="http://www.w3.org/2000/svg">
<path d="M26.2053 4.22597C25.5644 3.52027 24.8035 2.96046 23.966 2.57852C23.1286 2.19658 22.2309 2 21.3244 2C20.4179 2 19.5202 2.19658 18.6828 2.57852C17.8453 2.96046 17.0844 3.52027 16.4435 4.22597L15.1135 5.68985L13.7835 4.22597C12.489 2.80118 10.7333 2.00074 8.90261 2.00074C7.07193 2.00074 5.31622 2.80118 4.02173 4.22597C2.72724 5.65076 2 7.58319 2 9.59815C2 11.6131 2.72724 13.5455 4.02173 14.9703L5.35174 16.4342L15.1135 27.1786L24.8753 16.4342L26.2053 14.9703C26.8464 14.265 27.3551 13.4275 27.7021 12.5057C28.0491 11.5839 28.2277 10.5959 28.2277 9.59815C28.2277 8.60038 28.0491 7.61238 27.7021 6.6906C27.3551 5.76883 26.8464 4.93133 26.2053 4.22597Z" fill="#E74755" stroke="#E74755" stroke-opacity="0.9" stroke-width="3" stroke-linecap="round" stroke-linejoin="round"/>
</svg>
