<svg width="68" height="68" viewBox="0 0 68 68" fill="none" xmlns="http://www.w3.org/2000/svg">
<path d="M49.5 3H18.5C9.93959 3 3 9.93959 3 18.5V49.5C3 58.0604 9.93959 65 18.5 65H49.5C58.0604 65 65 58.0604 65 49.5V18.5C65 9.93959 58.0604 3 49.5 3Z" stroke="white" stroke-width="5" stroke-linecap="round" stroke-linejoin="round"/>
<path d="M46.3999 32.047C46.7825 34.6269 46.3418 37.2618 45.1405 39.5769C43.9393 41.892 42.0386 43.7693 39.7089 44.9419C37.3792 46.1146 34.7391 46.5227 32.164 46.1083C29.589 45.694 27.2102 44.4782 25.3659 42.634C23.5216 40.7897 22.3059 38.4109 21.8915 35.8358C21.4771 33.2608 21.8853 30.6206 23.0579 28.2909C24.2305 25.9612 26.1079 24.0606 28.4229 22.8593C30.738 21.6581 33.3729 21.2174 35.9529 21.6C38.5846 21.9902 41.0209 23.2165 42.9021 25.0977C44.7834 26.9789 46.0097 29.4153 46.3999 32.047Z" stroke="white" stroke-width="4" stroke-linecap="round" stroke-linejoin="round"/>
<path d="M51.05 16.95H51.081" stroke="white" stroke-width="4" stroke-linecap="round" stroke-linejoin="round"/>
</svg>
