<svg width="96" height="96" viewBox="0 0 96 96" fill="none" xmlns="http://www.w3.org/2000/svg">
<path d="M48 0C74.4688 0 96 21.5332 96 48C96 74.4668 74.4688 96 48 96C21.5312 96 0 74.4668 0 48C0 21.5332 21.5312 0 48 0ZM28.9179 49.6817L56.9179 67.6817C57.246 67.8945 57.6249 68.0001 57.9999 68.0001C58.3281 68.0001 58.6601 67.9179 58.9569 67.7559C59.6016 67.4044 60 66.7324 60 66V30C60 29.2676 59.6016 28.5956 58.9569 28.2441C58.3241 27.8964 57.5312 27.9178 56.9179 28.3183L28.9179 46.3183C28.3476 46.6854 27.9999 47.3203 27.9999 48C27.9999 48.6797 28.3476 49.3144 28.9179 49.6817Z" fill="#E9C02E"/>
</svg>
