<svg width="786" height="379" viewBox="0 0 786 379" fill="none" xmlns="http://www.w3.org/2000/svg">
<path d="M785.224 379H97.2703C43.6236 379 0 335.51 0 281.774V0H688.409C741.942 0 785.338 43.3761 785.338 96.8847V379H785.224Z" fill="#74BFBB"/>
<path d="M220.263 118.407C211.793 118.407 205.256 120.984 200.744 126.229C196.232 131.382 193.931 138.744 193.931 148.222C193.931 157.792 196.417 165.246 201.481 170.399C206.545 175.552 213.266 178.22 221.737 178.22C226.248 178.22 230.115 177.576 233.246 176.38C236.376 175.184 239.414 173.803 242.269 172.239C244.11 173.803 245.583 175.644 246.688 177.76C247.701 179.877 248.253 182.453 248.253 185.306C248.253 189.815 245.767 193.68 240.703 196.809C235.64 199.937 227.997 201.502 217.777 201.502C210.412 201.502 203.414 200.489 196.877 198.373C190.34 196.257 184.723 193.036 179.844 188.711C174.964 184.386 171.189 178.865 168.334 172.147C165.48 165.43 164.099 157.516 164.099 148.222C164.099 139.572 165.48 132.026 168.15 125.493C170.82 118.959 174.595 113.346 179.199 108.837C183.895 104.328 189.419 100.923 195.68 98.5306C201.941 96.2301 208.662 95.0338 215.844 95.0338C225.972 95.0338 233.89 96.6902 239.414 100.003C245.031 103.316 247.793 107.549 247.793 112.702C247.793 115.554 247.057 118.039 245.675 120.155C244.202 122.272 242.545 123.928 240.703 125.125C237.849 123.284 234.811 121.628 231.496 120.339C228.366 119.051 224.591 118.407 220.263 118.407Z" fill="white"/>
<path d="M334.341 198.281C333.236 198.649 331.487 198.925 329.093 199.293C326.699 199.661 324.305 199.753 321.727 199.753C319.334 199.753 317.124 199.569 315.19 199.293C313.257 198.925 311.599 198.281 310.31 197.269C309.021 196.257 308.009 194.968 307.272 193.22C306.535 191.471 306.167 189.263 306.167 186.502V149.786C306.167 145.277 305.062 142.056 302.76 140.308C300.459 138.468 297.696 137.547 294.382 137.547C292.172 137.547 290.054 137.823 288.121 138.376C286.095 138.928 284.53 139.572 283.333 140.4V198.281C282.228 198.649 280.479 198.925 278.085 199.293C275.691 199.661 273.297 199.753 270.719 199.753C268.325 199.753 266.116 199.569 264.182 199.293C262.249 198.925 260.591 198.281 259.302 197.269C258.013 196.257 257 194.968 256.264 193.22C255.527 191.471 255.159 189.263 255.159 186.502V90.6168C256.356 90.4328 258.197 90.0647 260.499 89.6966C262.893 89.3285 265.287 89.1445 267.681 89.1445C270.075 89.1445 272.284 89.3285 274.218 89.6046C276.151 89.9727 277.809 90.6168 279.098 91.6291C280.387 92.6413 281.4 93.9296 282.136 95.678C282.873 97.4264 283.241 99.6349 283.241 102.395V118.591C284.714 118.039 286.832 117.395 289.778 116.659C292.725 115.923 295.947 115.554 299.446 115.554C310.402 115.554 318.873 118.315 325.042 123.744C331.211 129.173 334.249 137.363 334.249 148.13V198.281H334.341Z" fill="white"/>
<path d="M344.469 95.6778C344.469 91.4449 345.851 87.9481 348.705 85.0954C351.559 82.2428 355.242 80.7705 359.846 80.7705C364.449 80.7705 368.224 82.2428 370.986 85.0954C373.841 87.9481 375.222 91.5369 375.222 95.6778C375.222 99.9108 373.841 103.408 370.986 106.26C368.132 109.113 364.449 110.585 359.846 110.585C355.242 110.585 351.467 109.113 348.705 106.26C345.851 103.408 344.469 99.9108 344.469 95.6778ZM373.933 198.281C372.736 198.465 370.894 198.833 368.593 199.201C366.199 199.569 363.805 199.753 361.411 199.753C359.017 199.753 356.807 199.569 354.874 199.293C352.94 198.925 351.283 198.281 349.994 197.269C348.705 196.256 347.692 194.968 346.955 193.22C346.219 191.471 345.851 189.263 345.851 186.502V119.235C347.048 119.051 348.889 118.683 351.191 118.315C353.585 117.947 355.979 117.763 358.372 117.763C360.766 117.763 362.976 117.947 364.91 118.223C366.843 118.591 368.5 119.235 369.789 120.247C371.078 121.26 372.091 122.548 372.828 124.296C373.564 126.045 373.933 128.253 373.933 131.014V198.281Z" fill="white"/>
<path d="M413.8 198.281C412.603 198.465 410.762 198.833 408.46 199.201C406.066 199.569 403.672 199.753 401.278 199.753C398.884 199.753 396.675 199.569 394.741 199.293C392.807 198.925 391.15 198.281 389.861 197.269C388.572 196.257 387.559 194.968 386.823 193.22C386.086 191.471 385.718 189.263 385.718 186.502V90.6168C386.915 90.4328 388.756 90.0647 391.058 89.6966C393.452 89.3285 395.846 89.1445 398.24 89.1445C400.634 89.1445 402.843 89.3285 404.777 89.6046C406.71 89.9727 408.368 90.6168 409.657 91.6291C410.946 92.6413 411.959 93.9296 412.695 95.678C413.432 97.4264 413.8 99.6349 413.8 102.395V198.281Z" fill="white"/>
<path d="M113.091 212.82C117.603 212.82 122.022 213.464 126.442 214.753C130.769 216.041 134.544 217.881 137.766 220.458C141.081 218.249 144.764 216.409 148.907 215.029C153.05 213.556 158.022 212.912 163.915 212.912C168.15 212.912 172.202 213.464 176.253 214.569C180.304 215.673 183.895 217.421 187.025 219.814C190.156 222.206 192.642 225.335 194.575 229.292C196.417 233.249 197.429 237.942 197.429 243.647V295.823C196.325 296.191 194.575 296.467 192.181 296.835C189.787 297.203 187.394 297.295 184.816 297.295C182.422 297.295 180.212 297.111 178.278 296.835C176.345 296.467 174.688 295.823 173.399 294.811C172.109 293.798 171.097 292.51 170.36 290.762C169.624 289.013 169.255 286.805 169.255 284.044V244.475C169.255 241.163 168.335 238.77 166.401 237.298C164.56 235.825 161.982 235.089 158.759 235.089C157.194 235.089 155.536 235.457 153.787 236.193C152.038 236.93 150.657 237.666 149.828 238.402C149.92 238.862 150.012 239.23 150.012 239.598C150.012 239.966 150.012 240.334 150.012 240.702V295.823C148.815 296.191 146.974 296.467 144.672 296.835C142.278 297.203 139.884 297.295 137.49 297.295C135.096 297.295 132.887 297.111 130.953 296.835C129.02 296.467 127.362 295.823 126.073 294.811C124.784 293.798 123.679 292.51 123.035 290.762C122.298 289.013 121.93 286.805 121.93 284.044V244.475C121.93 241.163 120.917 238.77 118.892 237.298C116.866 235.825 114.38 235.089 111.526 235.089C109.5 235.089 107.843 235.365 106.37 236.009C104.897 236.653 103.7 237.206 102.687 237.758V295.915C101.582 296.283 99.8325 296.559 97.4386 296.927C95.0448 297.295 92.6509 297.387 90.0728 297.387C87.6789 297.387 85.4692 297.203 83.5357 296.927C81.6022 296.559 79.9449 295.915 78.6558 294.903C77.3668 293.89 76.2619 292.602 75.6174 290.854C74.8809 289.105 74.5126 286.897 74.5126 284.136V234.169C74.5126 231.224 75.1571 228.832 76.4461 227.083C77.7351 225.335 79.4845 223.679 81.6942 222.114C85.4692 219.446 90.0728 217.329 95.6893 215.673C101.214 213.648 107.014 212.82 113.091 212.82Z" fill="white"/>
<path d="M250.647 298.399C244.11 298.399 238.125 297.479 232.509 295.639C226.893 293.798 222.105 291.13 217.962 287.449C213.818 283.768 210.596 279.259 208.202 273.738C205.808 268.217 204.611 261.775 204.611 254.321C204.611 247.052 205.808 240.794 208.202 235.549C210.596 230.304 213.726 225.979 217.593 222.666C221.46 219.262 225.88 216.777 230.852 215.213C235.824 213.648 240.888 212.82 246.136 212.82C252.028 212.82 257.277 213.74 262.156 215.489C266.944 217.237 271.087 219.722 274.586 222.758C278.085 225.887 280.755 229.568 282.689 233.893C284.622 238.218 285.543 242.911 285.543 247.972C285.543 251.745 284.53 254.598 282.412 256.622C280.295 258.646 277.348 259.843 273.666 260.395L232.601 266.468C233.798 270.149 236.284 272.818 240.059 274.658C243.834 276.498 248.161 277.419 252.949 277.419C257.461 277.419 261.788 276.867 265.747 275.67C269.798 274.474 273.021 273.186 275.599 271.621C277.348 272.726 278.822 274.29 280.111 276.222C281.308 278.247 281.952 280.271 281.952 282.48C281.952 287.449 279.65 291.13 274.955 293.614C271.456 295.455 267.405 296.743 262.985 297.387C258.658 298.031 254.514 298.399 250.647 298.399ZM245.952 233.341C243.282 233.341 240.98 233.801 239.046 234.629C237.113 235.549 235.547 236.654 234.351 238.034C233.154 239.414 232.233 240.978 231.588 242.635C230.944 244.383 230.576 246.132 230.483 247.88L258.842 243.279C258.474 241.07 257.277 238.862 255.159 236.654C253.133 234.445 250.095 233.341 245.952 233.341Z" fill="white"/>
<path d="M320.53 295.547C319.426 295.915 317.676 296.191 315.282 296.559C312.888 296.927 310.494 297.019 307.916 297.019C305.523 297.019 303.313 296.835 301.379 296.559C299.446 296.191 297.788 295.547 296.499 294.535C295.21 293.522 294.106 292.234 293.461 290.486C292.725 288.737 292.356 286.529 292.356 283.768V234.077C292.356 231.5 292.817 229.384 293.737 227.544C294.658 225.703 296.039 224.139 297.788 222.666C299.538 221.194 301.748 219.906 304.326 218.802C306.904 217.605 309.666 216.593 312.704 215.765C315.651 214.845 318.781 214.201 322.004 213.74C325.226 213.28 328.449 213.004 331.579 213.004C336.919 213.004 341.063 214.016 344.193 216.041C347.324 218.065 348.797 221.378 348.797 226.071C348.797 227.636 348.613 229.108 348.152 230.58C347.692 232.053 347.139 233.433 346.495 234.629C344.193 234.629 341.799 234.721 339.405 234.997C337.011 235.181 334.618 235.549 332.316 236.009C330.014 236.47 327.804 236.93 325.779 237.39C323.753 237.85 322.004 238.494 320.53 239.138V295.547Z" fill="white"/>
<path d="M396.122 234.997C393.36 234.997 390.782 235.457 388.296 236.285C385.81 237.206 383.692 238.494 381.851 240.15C380.009 241.899 378.536 244.015 377.431 246.5C376.326 249.076 375.774 252.021 375.774 255.426C375.774 262.235 377.708 267.388 381.667 270.793C385.626 274.198 390.321 275.946 396.03 275.946C399.345 275.946 402.199 275.578 404.685 274.75C407.079 274.014 409.288 273.186 411.13 272.266C413.34 273.83 414.997 275.486 416.102 277.327C417.207 279.167 417.759 281.284 417.759 283.86C417.759 288.369 415.641 291.866 411.314 294.35C406.987 296.835 401.002 298.031 393.452 298.031C386.454 298.031 380.194 297.019 374.577 294.995C368.961 292.97 364.081 290.118 360.122 286.345C356.07 282.664 352.94 278.247 350.73 273.002C348.52 267.849 347.416 262.051 347.416 255.794C347.416 248.524 348.613 242.175 351.006 236.654C353.4 231.224 356.623 226.715 360.674 223.127C364.725 219.63 369.513 216.961 374.853 215.213C380.193 213.464 385.902 212.544 391.795 212.544C399.713 212.544 405.882 214.016 410.209 216.869C414.537 219.722 416.654 223.403 416.654 228.004C416.654 230.12 416.194 232.053 415.181 233.893C414.168 235.733 413.063 237.298 411.682 238.586C409.841 237.666 407.539 236.838 404.869 236.009C402.015 235.365 399.16 234.997 396.122 234.997Z" fill="white"/>
<path d="M495.376 221.01C489.207 215.581 480.737 212.82 469.78 212.82C466.281 212.82 463.059 213.188 460.112 213.924C457.166 214.661 455.048 215.305 453.575 215.857V199.661C453.575 199.201 453.575 198.833 453.575 198.465V102.303C453.575 99.5428 453.207 97.3343 452.47 95.5859C451.734 93.8375 450.721 92.5492 449.432 91.537C448.143 90.5248 446.486 89.8806 444.552 89.5126C442.619 89.1445 440.409 89.0525 438.015 89.0525C435.621 89.0525 433.227 89.2365 430.833 89.6046C428.439 89.9727 426.69 90.3407 425.493 90.5248V186.502C425.493 186.962 425.493 187.33 425.493 187.699V283.768C425.493 286.529 425.861 288.737 426.598 290.486C427.335 292.234 428.347 293.522 429.636 294.535C430.925 295.547 432.583 296.191 434.516 296.559C436.45 296.927 438.659 297.019 441.053 297.019C443.631 297.019 446.025 296.835 448.419 296.559C450.813 296.191 452.562 295.915 453.667 295.547V237.574C454.864 236.838 456.522 236.101 458.455 235.549C460.481 234.997 462.506 234.721 464.716 234.721C468.031 234.721 470.793 235.641 473.095 237.482C475.396 239.322 476.501 242.451 476.501 246.96V283.676C476.501 286.437 476.87 288.645 477.606 290.394C478.343 292.142 479.356 293.43 480.645 294.442C481.934 295.455 483.591 296.099 485.524 296.467C487.458 296.835 489.668 296.927 492.062 296.927C494.64 296.927 497.033 296.743 499.427 296.467C501.821 296.099 503.571 295.823 504.675 295.455V245.303C504.583 234.629 501.545 226.439 495.376 221.01Z" fill="white"/>
<path d="M103.515 159.724C103.607 160.368 103.699 161.288 103.791 162.577C103.884 163.865 103.976 165.153 103.976 166.442C103.976 167.73 103.884 168.926 103.791 169.938C103.699 170.951 103.515 171.871 103.239 172.515C102.963 173.251 102.502 173.803 102.042 174.171C101.49 174.539 100.845 174.723 100.016 174.723H71.2898C71.1978 174.079 71.1057 173.159 71.0136 171.871C70.9215 170.583 70.8295 169.294 70.8295 168.006C70.8295 166.718 70.9215 165.521 71.0136 164.509C71.1057 163.497 71.2898 162.577 71.566 161.933C71.8423 161.196 72.3026 160.644 72.763 160.276C73.3154 159.908 73.9599 159.724 74.7886 159.724H103.515Z" fill="white"/>
<path d="M135.741 140.768C135.741 141.596 135.557 142.24 135.188 142.792C134.82 143.344 134.268 143.713 133.531 143.989C132.794 144.265 131.966 144.449 130.953 144.541C129.94 144.633 128.743 144.725 127.454 144.725C126.165 144.725 124.876 144.633 123.587 144.541C122.298 144.449 121.377 144.357 120.733 144.265V115.554C120.733 114.726 120.917 114.082 121.285 113.53C121.654 112.978 122.206 112.61 122.943 112.334C123.679 112.057 124.508 111.873 125.521 111.781C126.533 111.689 127.73 111.597 129.019 111.597C130.308 111.597 131.597 111.689 132.886 111.781C134.175 111.873 135.096 111.965 135.741 112.057V140.768Z" fill="white"/>
<path d="M115.945 145.185C115.577 145.645 114.933 146.473 114.104 147.393C113.275 148.406 112.447 149.326 111.526 150.246C110.605 151.166 109.776 151.994 108.948 152.638C108.119 153.283 107.383 153.743 106.646 154.019C105.909 154.295 105.265 154.387 104.62 154.295C103.976 154.203 103.423 153.835 102.779 153.283L82.5229 133.038C82.8912 132.578 83.5357 131.75 84.3644 130.83C85.1931 129.817 86.0217 128.897 86.9424 127.977C87.8632 127.057 88.6918 126.229 89.5205 125.584C90.3491 124.94 91.0857 124.48 91.8223 124.204C92.5589 123.928 93.2034 123.836 93.8479 123.928C94.4924 124.02 95.0448 124.388 95.6893 124.94L115.945 145.185Z" fill="white"/>
<path d="M115.024 155.767C122.298 149.142 134.083 149.142 141.357 155.767C148.631 162.393 148.631 173.159 141.357 179.785C134.083 186.41 122.298 186.41 115.024 179.785C107.751 173.159 107.751 162.393 115.024 155.767Z" fill="white"/>
<path d="M626.803 168.476C646.235 168.476 661.988 152.724 661.988 133.294C661.988 113.863 646.235 98.112 626.803 98.112C607.372 98.112 591.619 113.863 591.619 133.294C591.619 152.724 607.372 168.476 626.803 168.476Z" fill="#18728F" stroke="#010202" stroke-width="3" stroke-miterlimit="10"/>
<path d="M713.193 152.769C713.193 152.769 708.586 140.623 691.203 140.623C680.732 140.623 671.622 147.534 665.129 154.131C653.715 147.325 640.312 143.346 625.966 143.346C612.248 143.346 599.369 147.011 588.269 153.293C581.672 146.696 572.562 140.205 561.986 139.576C544.917 138.739 539.996 151.722 539.996 151.722C539.996 151.722 530.362 174.653 550.676 205.333C549.734 210.045 549.21 214.966 549.21 219.992C549.21 262.399 583.557 296.743 625.966 296.743C668.375 296.743 702.722 262.399 702.722 219.992C702.722 215.804 702.408 211.615 701.675 207.636C723.141 176.329 713.193 152.769 713.193 152.769Z" fill="white" stroke="#010202" stroke-width="4" stroke-miterlimit="10"/>
<path d="M560.833 193.291C560.833 193.291 568.059 173.083 579.682 164.078C579.682 164.078 571.305 150.152 560.101 149.733C548.896 149.419 548.372 156.225 548.372 156.225C548.372 156.225 541.357 172.769 560.833 193.291Z" fill="#FBDDDD" stroke="#E5717B" stroke-opacity="0.4" stroke-width="3" stroke-miterlimit="10"/>
<path d="M691.727 195.595C691.727 195.595 684.501 175.386 672.878 166.382C672.878 166.382 681.255 152.455 692.46 152.037C703.664 151.722 704.188 158.528 704.188 158.528C704.188 158.528 711.099 175.177 691.727 195.595Z" fill="#FBDDDD" stroke="#E5717B" stroke-opacity="0.4" stroke-width="3" stroke-miterlimit="10"/>
<path d="M632.877 214.652H617.275C614.133 214.652 612.353 218.421 614.552 220.83L622.301 229.625C623.767 231.3 626.385 231.3 627.851 229.625L635.6 220.83C637.694 218.421 636.019 214.652 632.877 214.652Z" fill="#010202"/>
<path d="M625.338 228.892V245.96C625.338 245.96 638.218 257.268 647.852 247.844" stroke="#010202" stroke-width="5" stroke-miterlimit="10"/>
<path d="M625.024 228.892V245.96C625.024 245.96 612.144 257.268 602.51 247.844" stroke="#010202" stroke-width="5" stroke-miterlimit="10"/>
<path d="M592.876 221.144C598.197 221.144 602.51 214.815 602.51 207.008C602.51 199.201 598.197 192.873 592.876 192.873C587.556 192.873 583.243 199.201 583.243 207.008C583.243 214.815 587.556 221.144 592.876 221.144Z" fill="#010202"/>
<path d="M657.485 221.144C662.806 221.144 667.119 214.815 667.119 207.008C667.119 199.201 662.806 192.873 657.485 192.873C652.165 192.873 647.852 199.201 647.852 207.008C647.852 214.815 652.165 221.144 657.485 221.144Z" fill="#010202"/>
<path d="M637.275 99.6826H616.332C615.495 98.7402 615.076 97.5884 615.076 96.4367C615.076 96.0178 615.076 95.7037 615.18 95.2849C615.285 94.9707 615.285 94.5519 615.285 94.1331C615.285 93.7142 615.285 93.4001 615.18 92.9813C614.762 91.2013 615.39 89.3165 616.751 88.1647C617.275 87.6412 617.798 87.0129 618.112 86.3847C618.845 84.7094 620.416 83.5576 622.196 83.4529C622.929 83.3482 623.662 83.1387 624.291 82.7199C625.861 81.7775 627.746 81.7775 629.317 82.7199C629.84 83.034 630.469 83.2434 631.097 83.3482C631.202 83.3482 631.306 83.3482 631.411 83.3482C633.191 83.4529 634.762 84.6046 635.495 86.28C635.809 87.0129 636.228 87.6412 636.856 88.06C638.218 89.2118 638.846 91.0965 638.427 92.8766C638.322 93.2954 638.322 93.6095 638.322 94.0284C638.322 94.4472 638.322 94.7613 638.427 95.1802C638.741 96.8555 638.322 98.5308 637.275 99.6826Z" fill="#15718F"/>
<path d="M637.275 99.6826H624.919C624.081 98.7403 623.662 97.5885 623.662 96.4367C623.662 96.0179 623.662 95.7037 623.767 95.2849C623.872 94.9708 623.872 94.552 623.872 94.1331C623.872 93.7143 623.872 93.4002 623.767 92.9813C623.348 91.2013 623.976 89.3166 625.338 88.1648C625.861 87.6412 626.385 87.013 626.699 86.3847C627.432 84.7094 629.003 83.5576 630.783 83.4529C630.888 83.4529 630.992 83.4529 631.097 83.4529C631.202 83.4529 631.306 83.4529 631.411 83.4529C633.191 83.5576 634.762 84.7094 635.495 86.3847C635.809 87.1177 636.228 87.7459 636.856 88.1648C638.218 89.3166 638.846 91.2013 638.427 92.9813C638.322 93.4002 638.322 93.7143 638.322 94.1331C638.322 94.552 638.322 94.8661 638.427 95.2849C638.741 96.8555 638.322 98.5309 637.275 99.6826Z" fill="#4795BC"/>
<path d="M659.37 158.947C659.579 158.842 659.893 158.842 660.208 158.738C662.197 158.11 663.768 156.434 664.187 154.34L666.805 142.822C667.014 141.985 667.014 141.147 666.805 140.204C666.49 138.634 665.548 136.226 662.93 135.388C659.056 134.131 626.908 128.896 591.201 135.388C588.583 135.807 586.593 138.006 586.279 140.519V140.623C586.175 141.252 586.279 141.88 586.384 142.508C586.907 144.812 588.373 151.408 589.002 154.131C589.63 156.748 591.829 158.738 594.447 158.842C594.656 158.842 594.761 158.842 594.971 158.842C599.369 158.842 618.636 152.141 656.647 158.842C657.59 159.157 658.532 159.157 659.37 158.947Z" fill="#4795BC" stroke="#010202" stroke-width="3" stroke-miterlimit="10"/>
<path d="M615.39 99.5778C615.39 99.5778 614.133 97.0649 615.075 94.9707C615.075 94.9707 613.924 92.2483 614.761 90.9918C614.761 90.9918 615.075 89.5259 616.332 88.5835C616.751 88.2694 617.065 87.7458 617.274 87.2223C617.484 86.3846 618.007 85.2328 619.369 84.6046C619.369 84.6046 620.73 83.5575 622.615 83.7669C622.615 83.7669 623.767 81.8822 626.594 82.301C626.594 82.301 628.06 81.9869 629.526 83.1387C629.84 83.3481 630.259 83.4528 630.573 83.4528C631.306 83.3481 632.353 83.4528 633.296 84.3952C633.296 84.3952 635.39 84.814 635.809 87.327C635.809 87.327 637.798 88.1647 638.322 90.7824C638.322 90.7824 639.264 92.2483 638.427 94.6566C638.427 94.6566 639.788 96.8554 638.113 99.892C638.217 99.6826 629.002 96.2272 615.39 99.5778Z" stroke="#010202" stroke-width="3" stroke-miterlimit="10"/>
<path d="M653.61 133.922C653.61 133.922 656.228 109.944 635.913 99.0542" stroke="#010202" stroke-width="3" stroke-miterlimit="10"/>
<path d="M643.558 133.294C643.558 133.294 646.49 106.698 633.61 98.6355" stroke="#010202" stroke-width="3" stroke-miterlimit="10"/>
<path d="M600.101 133.922C600.101 133.922 597.484 109.944 617.798 99.0542" stroke="#010202" stroke-width="3" stroke-miterlimit="10"/>
<path d="M610.154 133.294C610.154 133.294 607.222 106.698 620.102 98.6355" stroke="#010202" stroke-width="3" stroke-miterlimit="10"/>
</svg>
