<svg width="49" height="42" viewBox="0 0 49 42" fill="none" xmlns="http://www.w3.org/2000/svg">
<path d="M46.9877 25.2798H2.7127C1.60179 25.2798 0.700195 23.4276 0.700195 21.1455C0.700195 18.8634 1.60179 17.0112 2.7127 17.0112H46.9877C48.0986 17.0112 49.0002 18.8634 49.0002 21.1455C49.0002 23.4276 48.0986 25.2798 46.9877 25.2798Z" fill="white"/>
<path d="M46.9877 9.01513H2.7127C1.60179 9.01513 0.700195 7.16299 0.700195 4.88086C0.700195 2.59873 1.60179 0.746582 2.7127 0.746582H46.9877C48.0986 0.746582 49.0002 2.59873 49.0002 4.88086C49.0002 7.16299 48.0986 9.01513 46.9877 9.01513Z" fill="white"/>
<path d="M46.9877 41.5432H2.7127C1.60179 41.5432 0.700195 39.6911 0.700195 37.4089C0.700195 35.1268 1.60179 33.2747 2.7127 33.2747H46.9877C48.0986 33.2747 49.0002 35.1268 49.0002 37.4089C49.0002 39.6911 48.0986 41.5432 46.9877 41.5432Z" fill="white"/>
</svg>
