<svg width="127" height="29" viewBox="0 0 127 29" fill="none" xmlns="http://www.w3.org/2000/svg">
<g opacity="0.9">
<path d="M14.1585 1L18.0486 9.63224L26.7478 11.025L20.4531 17.7405L21.9387 27.2277L14.1585 22.7461L6.37832 27.2277L7.86386 17.7405L1.56921 11.025L10.2684 9.63224L14.1585 1Z" fill="white" stroke="white" stroke-width="2" stroke-linecap="round" stroke-linejoin="round"/>
<path d="M47.2054 1L51.0955 9.63224L59.7947 11.025L53.5 17.7405L54.9856 27.2277L47.2054 22.7461L39.4252 27.2277L40.9107 17.7405L34.6161 11.025L43.3153 9.63224L47.2054 1Z" fill="white" stroke="white" stroke-width="2" stroke-linecap="round" stroke-linejoin="round"/>
<path d="M80.2522 1L84.1423 9.63224L92.8415 11.025L86.5469 17.7405L88.0324 27.2277L80.2522 22.7461L72.4721 27.2277L73.9576 17.7405L67.663 11.025L76.3622 9.63224L80.2522 1Z" fill="white" stroke="white" stroke-width="2" stroke-linecap="round" stroke-linejoin="round"/>
<path d="M113.299 1L117.189 9.63224L125.888 11.025L119.594 17.7405L121.079 27.2277L113.299 22.7461L105.519 27.2277L107.004 17.7405L100.71 11.025L109.409 9.63224L113.299 1Z" stroke="white" stroke-width="2" stroke-linecap="round" stroke-linejoin="round"/>
</g>
</svg>
