<svg width="96" height="96" viewBox="0 0 96 96" fill="none" xmlns="http://www.w3.org/2000/svg">
<path d="M48 0C21.5312 0 0 21.5332 0 48C0 74.4668 21.5312 96 48 96C74.4688 96 96 74.4668 96 48C96 21.5332 74.4688 0 48 0ZM67.0821 49.6817L39.0821 67.6817C38.754 67.8945 38.3751 68.0001 38.0001 68.0001C37.6719 68.0001 37.3399 67.9179 37.0431 67.7559C36.3984 67.4044 36 66.7324 36 66V30C36 29.2676 36.3984 28.5956 37.0431 28.2441C37.6759 27.8964 38.4688 27.9178 39.0821 28.3183L67.0821 46.3183C67.6524 46.6854 68.0001 47.3203 68.0001 48C68.0001 48.6797 67.6524 49.3144 67.0821 49.6817Z" fill="#D46B7A"/>
</svg>
