<svg width="61" height="57" viewBox="0 0 61 57" fill="none" xmlns="http://www.w3.org/2000/svg">
<path d="M59.6571 42.0057C51.6355 40.6856 48.0203 32.469 47.874 32.1202C47.8628 32.0977 47.8553 32.0752 47.8403 32.0527C47.4315 31.2202 47.334 30.5339 47.559 30.0127C47.9978 28.9851 49.6779 28.4526 50.7879 28.1001C51.1105 27.9988 51.4142 27.9013 51.6655 27.8038C52.7605 27.3725 53.5406 26.9038 54.0581 26.375C54.6731 25.7412 54.7931 25.1337 54.7856 24.7399C54.7669 23.7799 54.0318 22.9248 52.858 22.5086C52.4643 22.3473 52.0105 22.261 51.553 22.261C51.2417 22.261 50.7767 22.3023 50.3379 22.5086C49.4004 22.9473 48.5603 23.1873 47.8365 23.2211C47.454 23.2023 47.184 23.1198 47.0078 23.0411C47.0303 22.6661 47.0528 22.2798 47.079 21.8823L47.0903 21.7098C47.349 17.6483 47.6678 12.5968 46.3252 9.5967C45.4064 7.5416 44.1726 5.77527 42.6538 4.3427C41.3825 3.14265 39.9049 2.1676 38.2623 1.44757C35.4085 0.187509 32.7458 0 31.4108 0H31.407C31.3545 0 31.3058 0 31.2608 0C30.8895 0.00375018 30.2857 0.0112505 30.2295 0.0112505C28.8982 0.0112505 26.2318 0.198759 23.3704 1.45882C21.7316 2.17885 20.2615 3.15015 18.9939 4.3502C17.4826 5.78277 16.2526 7.54535 15.3375 9.59295C13.995 12.5893 14.3137 17.6408 14.5687 21.6985V21.706C14.595 22.141 14.625 22.5948 14.6512 23.0373C14.4562 23.1236 14.1375 23.2211 13.6687 23.2211C12.9112 23.2211 12.0111 22.9811 10.9948 22.5048C10.6948 22.366 10.3535 22.2948 9.97853 22.2948C9.37475 22.2948 8.73347 22.471 8.18219 22.7973C7.48466 23.2061 7.03464 23.7799 6.91089 24.4211C6.83213 24.8412 6.83588 25.6774 7.76592 26.525C8.2797 26.99 9.02973 27.4213 10.001 27.8038C10.256 27.9051 10.5598 27.9988 10.8786 28.1001C11.9886 28.4526 13.6725 28.9851 14.1112 30.0127C14.3325 30.5339 14.235 31.2202 13.8262 32.0527C13.815 32.0752 13.8037 32.0977 13.7962 32.1202C13.6912 32.3603 12.7349 34.5166 10.7736 36.793C9.65976 38.0868 8.43346 39.1706 7.1284 40.0106C5.53457 41.0382 3.81324 41.7057 2.00941 42.002C1.30062 42.1182 0.79435 42.7482 0.835602 43.4645C0.846852 43.6708 0.895605 43.877 0.981859 44.0758V44.0796C1.27062 44.7508 1.9344 45.3171 3.01445 45.8159C4.33452 46.4272 6.30711 46.9409 8.88348 47.3422C9.01473 47.5897 9.14974 48.2085 9.24349 48.6323C9.341 49.0823 9.44225 49.5473 9.58851 50.0386C9.74602 50.5711 10.151 51.2086 11.1973 51.2086C11.5949 51.2086 12.0486 51.1186 12.5774 51.0174C13.3499 50.8674 14.4075 50.6611 15.7238 50.6611C16.4551 50.6611 17.2126 50.7249 17.9739 50.8524C19.444 51.0961 20.7115 51.9887 22.1778 53.0237C24.3229 54.5388 26.7531 56.2526 30.4657 56.2526C30.567 56.2526 30.6682 56.2489 30.7695 56.2414C30.8895 56.2489 31.0433 56.2526 31.2008 56.2526C34.9134 56.2526 37.3436 54.5388 39.4887 53.0275L39.4924 53.0237C40.9587 51.9924 42.2263 51.0999 43.6964 50.8561C44.4576 50.7286 45.2152 50.6649 45.9465 50.6649C47.2065 50.6649 48.2041 50.8261 49.0929 50.9986C49.6741 51.1111 50.1242 51.1674 50.4729 51.1674H50.5067H50.5404C51.3055 51.1674 51.868 50.7474 52.0817 50.0161C52.2243 49.5323 52.3255 49.0823 52.4268 48.621C52.513 48.2235 52.6555 47.586 52.783 47.3385C55.3594 46.9334 57.332 46.4234 58.6521 45.8121C59.7284 45.3134 60.3921 44.7471 60.6809 44.0796C60.7672 43.8808 60.8197 43.6745 60.8309 43.4608C60.8722 42.752 60.3659 42.1182 59.6571 42.0057Z" fill="white"/>
</svg>
