<svg width="102" height="105" viewBox="0 0 102 105" fill="none" xmlns="http://www.w3.org/2000/svg">
<mask id="path-1-inside-1" fill="white">
<path d="M97.2292 63.6367L83.9819 67.0253L74.2392 61.6564V43.3436L83.9819 37.9747L97.2292 41.3633C98.9832 41.8135 100.786 40.8194 101.257 39.1451C101.727 37.47 100.685 35.7477 98.9311 35.2999L92.0368 33.5359L97.4751 30.5382C99.047 29.6722 99.5866 27.7528 98.6785 26.25C97.7713 24.7496 95.758 24.2345 94.1861 25.1012L88.7479 28.0981L90.5942 21.518C91.0658 19.8437 90.0244 18.1206 88.2704 17.6728C86.5138 17.2234 84.712 18.2175 84.242 19.8918L80.6929 32.5369L70.9511 37.9058L54.3368 28.7494V18.014L64.035 8.75668C65.3198 7.53021 65.3198 5.54192 64.035 4.31545C62.7501 3.09139 60.6696 3.09139 59.3848 4.31545L54.3368 9.13399V3.13946C54.3368 1.40671 52.8639 0 51.0478 0C49.2326 0 47.7589 1.40671 47.7589 3.13946V9.13399L42.7117 4.31545C41.4269 3.09139 39.3464 3.09139 38.0615 4.31545C36.7767 5.54192 36.7767 7.53021 38.0615 8.75668L47.7589 18.014V28.7494L31.1454 37.9058L21.4036 32.5369L17.8536 19.8918C17.3845 18.2175 15.5827 17.2234 13.8262 17.6728C12.0722 18.1206 11.0307 19.8437 11.5015 21.518L13.3478 28.0981L7.9104 25.1012C6.33852 24.2345 4.3252 24.7496 3.41798 26.25C2.50993 27.7528 3.04956 29.6722 4.62144 30.5382L10.0588 33.5359L3.16537 35.2999C1.41138 35.7477 0.369888 37.47 0.83902 39.1451C1.31067 40.8194 3.1125 41.8135 4.86734 41.3633L18.1146 37.9747L27.8565 43.3436V61.6564L18.1146 67.0253L4.86734 63.6367C3.1125 63.1865 1.30815 64.1806 0.83902 65.8549C0.369888 67.53 1.41138 69.2523 3.16537 69.7001L10.0588 71.4641L4.62144 74.4618C3.04956 75.3278 2.50993 77.2472 3.41798 78.75C4.3252 80.2504 6.33852 80.7655 7.9104 79.8988L13.3478 76.9019L11.5015 83.482C11.0307 85.1563 12.0722 86.8794 13.8262 87.3272C15.5802 87.7766 17.3845 86.7825 17.8536 85.1082L21.4036 72.4631L31.1454 67.0942L47.7589 76.2506V86.986L38.0615 96.2433C36.7767 97.4698 36.7767 99.4581 38.0615 100.685C39.3464 101.909 41.4269 101.909 42.7117 100.685L47.7589 95.866V101.861C47.7589 103.593 49.2326 105 51.0478 105C52.8639 105 54.3368 103.593 54.3368 101.861V95.866L59.3848 100.685C60.6696 101.909 62.7501 101.909 64.035 100.685C65.3198 99.4581 65.3198 97.4698 64.035 96.2433L54.3368 86.986V76.2506L70.9511 67.0942L80.6929 72.4631L84.242 85.1082C84.712 86.7825 86.5164 87.7766 88.2704 87.3272C90.0244 86.8794 91.0658 85.1563 90.5942 83.482L88.7479 76.9019L94.1861 79.8988C95.758 80.7655 97.7713 80.2504 98.6785 78.75C99.5866 77.2472 99.047 75.3278 97.4751 74.4618L92.0368 71.4641L98.9311 69.7001C100.685 69.2523 101.727 67.53 101.257 65.8549C100.786 64.1806 98.9832 63.1865 97.2292 63.6367ZM34.4344 46.9685L44.4699 52.5L34.4344 58.0315V46.9685ZM47.7589 69.0008L37.7233 63.4693L47.7589 57.9378V69.0008ZM47.7589 47.0622L37.7233 41.5307L47.7589 35.9992V47.0622ZM54.3368 35.9992L64.3732 41.5307L54.3368 47.0622V35.9992ZM54.3368 69.0008V57.9378L64.3732 63.4693L54.3368 69.0008ZM67.6621 58.0315L57.6257 52.5L67.6621 46.9685V58.0315Z"/>
</mask>
<path d="M97.2292 63.6367L83.9819 67.0253L74.2392 61.6564V43.3436L83.9819 37.9747L97.2292 41.3633C98.9832 41.8135 100.786 40.8194 101.257 39.1451C101.727 37.47 100.685 35.7477 98.9311 35.2999L92.0368 33.5359L97.4751 30.5382C99.047 29.6722 99.5866 27.7528 98.6785 26.25C97.7713 24.7496 95.758 24.2345 94.1861 25.1012L88.7479 28.0981L90.5942 21.518C91.0658 19.8437 90.0244 18.1206 88.2704 17.6728C86.5138 17.2234 84.712 18.2175 84.242 19.8918L80.6929 32.5369L70.9511 37.9058L54.3368 28.7494V18.014L64.035 8.75668C65.3198 7.53021 65.3198 5.54192 64.035 4.31545C62.7501 3.09139 60.6696 3.09139 59.3848 4.31545L54.3368 9.13399V3.13946C54.3368 1.40671 52.8639 0 51.0478 0C49.2326 0 47.7589 1.40671 47.7589 3.13946V9.13399L42.7117 4.31545C41.4269 3.09139 39.3464 3.09139 38.0615 4.31545C36.7767 5.54192 36.7767 7.53021 38.0615 8.75668L47.7589 18.014V28.7494L31.1454 37.9058L21.4036 32.5369L17.8536 19.8918C17.3845 18.2175 15.5827 17.2234 13.8262 17.6728C12.0722 18.1206 11.0307 19.8437 11.5015 21.518L13.3478 28.0981L7.9104 25.1012C6.33852 24.2345 4.3252 24.7496 3.41798 26.25C2.50993 27.7528 3.04956 29.6722 4.62144 30.5382L10.0588 33.5359L3.16537 35.2999C1.41138 35.7477 0.369888 37.47 0.83902 39.1451C1.31067 40.8194 3.1125 41.8135 4.86734 41.3633L18.1146 37.9747L27.8565 43.3436V61.6564L18.1146 67.0253L4.86734 63.6367C3.1125 63.1865 1.30815 64.1806 0.83902 65.8549C0.369888 67.53 1.41138 69.2523 3.16537 69.7001L10.0588 71.4641L4.62144 74.4618C3.04956 75.3278 2.50993 77.2472 3.41798 78.75C4.3252 80.2504 6.33852 80.7655 7.9104 79.8988L13.3478 76.9019L11.5015 83.482C11.0307 85.1563 12.0722 86.8794 13.8262 87.3272C15.5802 87.7766 17.3845 86.7825 17.8536 85.1082L21.4036 72.4631L31.1454 67.0942L47.7589 76.2506V86.986L38.0615 96.2433C36.7767 97.4698 36.7767 99.4581 38.0615 100.685C39.3464 101.909 41.4269 101.909 42.7117 100.685L47.7589 95.866V101.861C47.7589 103.593 49.2326 105 51.0478 105C52.8639 105 54.3368 103.593 54.3368 101.861V95.866L59.3848 100.685C60.6696 101.909 62.7501 101.909 64.035 100.685C65.3198 99.4581 65.3198 97.4698 64.035 96.2433L54.3368 86.986V76.2506L70.9511 67.0942L80.6929 72.4631L84.242 85.1082C84.712 86.7825 86.5164 87.7766 88.2704 87.3272C90.0244 86.8794 91.0658 85.1563 90.5942 83.482L88.7479 76.9019L94.1861 79.8988C95.758 80.7655 97.7713 80.2504 98.6785 78.75C99.5866 77.2472 99.047 75.3278 97.4751 74.4618L92.0368 71.4641L98.9311 69.7001C100.685 69.2523 101.727 67.53 101.257 65.8549C100.786 64.1806 98.9832 63.1865 97.2292 63.6367ZM34.4344 46.9685L44.4699 52.5L34.4344 58.0315V46.9685ZM47.7589 69.0008L37.7233 63.4693L47.7589 57.9378V69.0008ZM47.7589 47.0622L37.7233 41.5307L47.7589 35.9992V47.0622ZM54.3368 35.9992L64.3732 41.5307L54.3368 47.0622V35.9992ZM54.3368 69.0008V57.9378L64.3732 63.4693L54.3368 69.0008ZM67.6621 58.0315L57.6257 52.5L67.6621 46.9685V58.0315Z" fill="#7ED8F6" stroke="black" stroke-width="2" mask="url(#path-1-inside-1)"/>
<path d="M72.3948 23.0112C72.3948 24.7786 70.8868 26.2507 68.9772 26.2507C67.0669 26.2507 65.5597 24.7787 65.5597 23.0112C65.5597 21.2437 67.0669 19.7717 68.9772 19.7717C70.8868 19.7717 72.3948 21.2438 72.3948 23.0112Z" fill="#5ECEF4" stroke="black"/>
<path d="M20.8104 52.5C20.8104 54.2674 19.3025 55.7394 17.3929 55.7394C15.4833 55.7394 13.9753 54.2674 13.9753 52.5C13.9753 50.7326 15.4833 49.2605 17.3929 49.2605C19.3025 49.2605 20.8104 50.7326 20.8104 52.5Z" fill="#7ED8F6" stroke="black"/>
<path d="M88.1212 52.5C88.1212 54.2674 86.6133 55.7394 84.7037 55.7394C82.7941 55.7394 81.2861 54.2674 81.2861 52.5C81.2861 50.7326 82.7941 49.2605 84.7037 49.2605C86.6133 49.2605 88.1212 50.7326 88.1212 52.5Z" fill="#5ECEF4" stroke="black"/>
<path d="M37.136 23.0112C37.136 24.7786 35.628 26.2507 33.7184 26.2507C31.8089 26.2507 30.3009 24.7786 30.3009 23.0112C30.3009 21.2438 31.8089 19.7717 33.7184 19.7717C35.628 19.7717 37.136 21.2438 37.136 23.0112Z" fill="#7ED8F6" stroke="black"/>
<path d="M72.0951 81.9887C72.0951 83.7561 70.5871 85.2282 68.6776 85.2282C66.768 85.2282 65.26 83.7561 65.26 81.9887C65.26 80.2213 66.768 78.7493 68.6776 78.7493C70.5871 78.7493 72.0951 80.2213 72.0951 81.9887Z" fill="#5ECEF4" stroke="black"/>
<path d="M36.8364 81.9887C36.8364 83.7561 35.3285 85.2282 33.4189 85.2282C31.5093 85.2282 30.0013 83.7561 30.0013 81.9887C30.0013 80.2213 31.5093 78.7493 33.4189 78.7493C35.3285 78.7493 36.8364 80.2213 36.8364 81.9887Z" fill="#7ED8F6" stroke="black"/>
<path d="M53.9243 87.2834L53.9618 94.8168L54.682 95.5043L59.7297 100.323L53.9243 87.2834ZM53.9243 87.2834L53.9916 87.3477L63.6898 96.605C64.7683 97.6345 64.7683 99.2934 63.6898 100.323C62.5981 101.363 60.8217 101.363 59.73 100.323L53.9243 87.2834ZM97.3531 64.1211L97.3535 64.121C98.8617 63.7339 100.383 64.5945 100.776 65.9905C101.164 67.3768 100.308 68.8326 98.8075 69.2157L98.8072 69.2157L91.9129 70.9797L90.69 71.2926L91.7955 71.902L97.2337 74.8997L97.2338 74.8997C98.567 75.6342 99.0059 77.2414 98.2506 78.4914C97.4875 79.7533 95.7735 80.2031 94.4276 79.4609L94.4275 79.4609L88.9892 76.464L87.9441 75.8881L88.2665 77.037L90.1128 83.6171L90.1129 83.6176C90.5032 85.0028 89.6476 86.4596 88.1467 86.8428L88.1463 86.8429C86.6376 87.2294 85.1151 86.3683 84.7235 84.9731L81.1743 72.328L81.1177 72.1263L80.9343 72.0252L71.1924 66.6563L70.9511 66.5233L70.7098 66.6563L54.0955 75.8127L53.8679 75.9382L53.8376 69.8469L54.5782 69.4387L64.6145 63.9072L65.4091 63.4693L64.6145 63.0314L54.5782 57.4999L53.8368 57.0913V57.9378V69.0008V69.6971L53.5024 2.48463C53.6401 2.4759 53.7595 2.46437 53.8625 2.45253C53.8492 2.62819 53.8368 2.85495 53.8368 3.13946V9.13399V10.3025L54.682 9.49567L59.7297 4.67747C59.7297 4.67741 59.7298 4.67736 59.7299 4.6773C60.8215 3.6375 62.598 3.63744 63.6898 4.67713C64.7683 5.70662 64.7683 7.36551 63.6898 8.395L53.9916 17.6524L53.8368 17.8001V18.014V28.7494V29.0447L54.0955 29.1873L70.7098 38.3437L70.9511 38.4767L71.1924 38.3437L80.9343 32.9748L81.1177 32.8737L81.1743 32.672L84.7234 20.0269C85.1151 18.6316 86.6352 17.7705 88.1464 18.1572L88.1467 18.1572C89.6476 18.5404 90.5032 19.9972 90.1129 21.3824L90.1128 21.3829L88.2665 27.963L87.9441 29.1119L88.9892 28.536L94.4275 25.5392L94.4276 25.5391C95.7735 24.7969 97.4875 25.2467 98.2506 26.5086C99.0059 27.7586 98.567 29.3658 97.2338 30.1003L97.2337 30.1003L91.7955 33.098L90.69 33.7074L91.9129 34.0203L98.8072 35.7843L98.8075 35.7843C100.308 36.1674 101.164 37.6232 100.776 39.0095C100.383 40.4055 98.8617 41.2661 97.3535 40.879L97.3531 40.8789L84.1058 37.4903L83.914 37.4412L83.7406 37.5368L73.9979 42.9057L73.7392 43.0482V43.3436V61.6564V61.9518L73.9979 62.0943L83.7406 67.4632L83.914 67.5588L84.1058 67.5097L97.3531 64.1211ZM54.2748 2.40206C54.2744 2.40236 54.2689 2.4027 54.2594 2.4022C54.2704 2.40151 54.2752 2.40176 54.2748 2.40206ZM54.5782 35.5613L53.8368 35.1527V35.9992V47.0622V47.9087L54.5782 47.5001L64.6145 41.9686L65.4091 41.5307L64.6145 41.0928L54.5782 35.5613ZM67.4208 58.4694L68.1622 58.878V58.0315V46.9685V46.122L67.4208 46.5306L57.3844 52.0621L56.5899 52.5L57.3844 52.9379L67.4208 58.4694Z" fill="#5ECEF4" stroke="black"/>
</svg>
