<?xml version="1.0" encoding="utf-8"?>
<!-- Generator: Adobe Illustrator 19.0.0, SVG Export Plug-In . SVG Version: 6.00 Build 0)  -->
<svg version="1.1" id="Layer_1" xmlns="http://www.w3.org/2000/svg" xmlns:xlink="http://www.w3.org/1999/xlink" x="0px" y="0px"
	 viewBox="-247 368.9 100 105" style="enable-background:new -247 368.9 100 105;" xml:space="preserve">
<style type="text/css">
	.st0{fill:#F27281;stroke:#000000;stroke-width:2;}
	.st1{fill:#EA6376;stroke:#000000;stroke-width:2;}
	.st2{fill:#FFFFFF;}
	.st3{fill:#F7D88B;}
	.st4{opacity:0.1;}
	.st5{opacity:0.1;enable-background:new    ;}
</style>
<path class="st0" d="M-152.5,399.8L-152.5,399.8c1,0.4,1.5,1.7,1.1,2.8c-0.4,1.3-1.1,3-2,4.9c-0.4,0.9-0.1,2,0.7,2.5
	c1.7,1,3.2,1.9,4.2,2.7c0.9,0.6,1.2,2,0.6,3l0.4,0.2l-0.4-0.2c-2.6,4.7-9.7,15.2-21.5,18.3l-0.7,0.2l0.5,0.6
	c7.9,10.2,8,23.3,7.6,28.8c-0.1,1.2-1,2.1-2,2c-1.2-0.1-2.9-0.2-4.8-0.5c-1-0.2-1.8,0.6-2,1.5c-0.3,2.1-0.7,3.9-1,5.2
	c-0.3,1.2-1.3,1.8-2.3,1.6c-4.8-1.3-16.1-5.5-22.5-16.9l-0.4-0.8l-0.4,0.8c-6.3,11.4-17.6,15.6-22.5,16.9c-1,0.3-2-0.4-2.3-1.6
	l-0.5,0.1l0.5-0.1c-0.3-1.3-0.7-3.1-1-5.2c-0.1-1-1-1.7-2-1.5c-1.9,0.3-3.6,0.5-4.8,0.5c-1,0.1-2-0.8-2-2l-0.5,0l0.5,0
	c-0.4-5.5-0.2-18.6,7.6-28.8l0.5-0.6l-0.7-0.2c-11.8-3.1-18.9-13.7-21.5-18.3c-0.6-1-0.3-2.4,0.6-3l-0.3-0.4l0.3,0.4
	c1-0.7,2.5-1.7,4.2-2.7c0.8-0.5,1.1-1.6,0.7-2.5c-0.9-1.9-1.5-3.6-2-4.9c-0.4-1.1,0.1-2.4,1.1-2.8c4.6-2.1,16-6,27.1-0.9l0.8,0.4
	l-0.1-0.8c-1-13.3,6-24.1,9.2-28.2c0.7-0.9,1.9-1,2.7-0.3c1,0.9,2.2,2.1,3.6,3.6c0.7,0.7,1.8,0.7,2.5,0c1.4-1.5,2.7-2.7,3.6-3.6
	c0.8-0.7,2-0.6,2.7,0.3c3.2,4.2,10.1,14.9,9.2,28.2l-0.1,0.8l0.8-0.4C-168.4,393.8-157.1,397.7-152.5,399.8z"/>
<path class="st1" d="M-246.2,415.6c2.6,4.7,9.7,15.2,21.5,18.3l0.7,0.2l-0.5,0.6c-7.9,10.2-8,23.3-7.6,28.8l-0.5,0l0.5,0
	c0.1,1.2,1,2.1,2,2c1.2-0.1,2.9-0.2,4.8-0.5c1-0.2,1.8,0.6,2,1.5c0.3,2.1,0.7,3.9,1,5.2l-0.5,0.1l0.5-0.1c0.3,1.2,1.3,1.8,2.3,1.6
	l0.1,0.5l-0.1-0.5c4.8-1.3,16.1-5.5,22.5-16.9l0.4-0.8l0.4,0.8c6.3,11.4,17.6,15.6,22.5,16.9c1,0.3,2-0.4,2.3-1.6
	c0.3-1.3,0.7-3.1,1-5.2c0-0.1,0.1-0.3,0.1-0.4c-18.1-6.7-27.3-26.4-31.8-46.5c-4.2-19-4.2-38.4-3.2-48c-3.5,4.9-8.9,14.8-8.1,26.7
	l0.1,0.8l-0.8-0.4c-11.2-5.1-22.5-1.2-27.1,0.9c-1,0.4-1.5,1.7-1.1,2.8c0.4,1.3,1.1,3,2,4.9c0.4,0.9,0.1,2-0.7,2.5
	c-1.7,1-3.2,1.9-4.2,2.7l-0.3-0.4l0.3,0.4C-246.5,413.3-246.8,414.6-246.2,415.6z M-246.2,415.6l-0.4,0.2L-246.2,415.6z"/>
<path class="st2" d="M-197,426.1c-0.8,0-1.5-0.7-1.5-1.6v-15.7c0-0.9,0.7-1.6,1.5-1.6s1.5,0.7,1.5,1.6v15.7
	C-195.5,425.4-196.2,426.1-197,426.1z"/>
<path class="st3" d="M-197,413.1c2.2,0,3.9-1.9,3.9-4.3c0-2.4-1.8-4.3-3.9-4.3c-2.2,0-3.9,1.9-3.9,4.3
	C-200.9,411.2-199.2,413.1-197,413.1z"/>
<path class="st2" d="M-197,426.1c-0.4,0-0.7-0.2-1-0.5l-10.1-11.1c-0.6-0.6-0.6-1.7,0-2.3c0.6-0.6,1.5-0.6,2.1,0l10.1,11.1
	c0.6,0.6,0.6,1.7,0,2.3C-196.3,425.9-196.6,426.1-197,426.1z"/>
<path class="st3" d="M-207.1,417.7c2.2,0,3.9-1.9,3.9-4.3s-1.8-4.3-3.9-4.3s-3.9,1.9-3.9,4.3S-209.2,417.7-207.1,417.7z"/>
<path class="st2" d="M-197,426.1h-14.3c-0.8,0-1.5-0.7-1.5-1.6c0-0.9,0.7-1.6,1.5-1.6h14.3c0.8,0,1.5,0.7,1.5,1.6
	S-196.2,426.1-197,426.1z"/>
<path class="st3" d="M-211.3,428.8c2.2,0,3.9-1.9,3.9-4.3c0-2.4-1.8-4.3-3.9-4.3c-2.2,0-3.9,1.9-3.9,4.3
	C-215.2,426.9-213.4,428.8-211.3,428.8z"/>
<path class="st2" d="M-207.1,437.2c-0.4,0-0.7-0.2-1-0.5c-0.6-0.6-0.6-1.7,0-2.3l10.1-11.1c0.6-0.6,1.5-0.6,2.1,0
	c0.6,0.6,0.6,1.7,0,2.3l-10.1,11.1C-206.3,437-206.7,437.2-207.1,437.2z"/>
<path class="st3" d="M-207.1,439.9c2.2,0,3.9-1.9,3.9-4.3s-1.8-4.3-3.9-4.3s-3.9,1.9-3.9,4.3S-209.2,439.9-207.1,439.9z"/>
<path class="st2" d="M-197,441.8c-0.8,0-1.5-0.7-1.5-1.6v-15.7c0-0.9,0.7-1.6,1.5-1.6s1.5,0.7,1.5,1.6v15.7
	C-195.5,441.1-196.2,441.8-197,441.8z"/>
<path class="st3" d="M-197,444.5c2.2,0,3.9-1.9,3.9-4.3s-1.8-4.3-3.9-4.3c-2.2,0-3.9,1.9-3.9,4.3S-199.2,444.5-197,444.5z"/>
<path class="st2" d="M-186.9,437.2c-0.4,0-0.7-0.2-1-0.5l-10.1-11.1c-0.6-0.6-0.6-1.7,0-2.3c0.6-0.6,1.5-0.6,2.1,0l10.1,11.1
	c0.6,0.6,0.6,1.7,0,2.3C-186.2,437-186.5,437.2-186.9,437.2z"/>
<path class="st3" d="M-186.9,439.9c2.2,0,3.9-1.9,3.9-4.3s-1.8-4.3-3.9-4.3s-3.9,1.9-3.9,4.3S-189.1,439.9-186.9,439.9z"/>
<path class="st2" d="M-182.7,426.1H-197c-0.8,0-1.5-0.7-1.5-1.6c0-0.9,0.7-1.6,1.5-1.6h14.3c0.8,0,1.5,0.7,1.5,1.6
	S-181.9,426.1-182.7,426.1z"/>
<path class="st3" d="M-182.7,428.8c2.2,0,3.9-1.9,3.9-4.3c0-2.4-1.8-4.3-3.9-4.3c-2.2,0-3.9,1.9-3.9,4.3
	C-186.7,426.9-184.9,428.8-182.7,428.8z"/>
<path class="st2" d="M-197,426.1c-0.4,0-0.7-0.2-1-0.5c-0.6-0.6-0.6-1.7,0-2.3l10.1-11.1c0.6-0.6,1.5-0.6,2.1,0
	c0.6,0.6,0.6,1.7,0,2.3l-10.1,11.1C-196.3,425.9-196.6,426.1-197,426.1z"/>
<path class="st3" d="M-186.9,417.7c2.2,0,3.9-1.9,3.9-4.3s-1.8-4.3-3.9-4.3s-3.9,1.9-3.9,4.3S-189.1,417.7-186.9,417.7z"/>
<g class="st4">
	<path class="st5" d="M-197,399.2c-0.8,0-1.5-0.7-1.5-1.6V381c0-0.9,0.7-1.6,1.5-1.6s1.5,0.7,1.5,1.6v16.6
		C-195.5,398.5-196.2,399.2-197,399.2z"/>
	<path class="st5" d="M-220.2,417.8c-0.1,0-0.3,0-0.5-0.1l-14.3-5.1c-0.8-0.3-1.2-1.2-0.9-2c0.3-0.8,1.1-1.3,1.8-1l14.3,5.1
		c0.8,0.3,1.2,1.2,0.9,2C-219,417.4-219.6,417.8-220.2,417.8z"/>
	<path class="st5" d="M-220.2,461.2c-0.3,0-0.6-0.1-0.9-0.3c-0.7-0.5-0.8-1.5-0.3-2.3l8.8-13.4c0.5-0.7,1.4-0.9,2-0.4
		c0.7,0.5,0.8,1.5,0.3,2.3l-8.8,13.4C-219.3,461-219.7,461.2-220.2,461.2z"/>
	<path class="st5" d="M-173.8,417.8c-0.6,0-1.2-0.4-1.4-1.1c-0.3-0.8,0.2-1.8,0.9-2l14.3-5.1c0.8-0.3,1.6,0.2,1.8,1
		c0.3,0.8-0.2,1.8-0.9,2l-14.3,5.1C-173.5,417.8-173.6,417.8-173.8,417.8z"/>
	<path class="st5" d="M-173.8,461.2c-0.5,0-0.9-0.2-1.2-0.7l-8.8-13.4c-0.5-0.7-0.3-1.7,0.3-2.3c0.7-0.5,1.6-0.4,2,0.4l8.8,13.4
		c0.5,0.7,0.3,1.7-0.3,2.3C-173.2,461.1-173.5,461.2-173.8,461.2z"/>
</g>
</svg>
