<?xml version="1.0" encoding="utf-8"?>
<!-- Generator: Adobe Illustrator 19.0.0, SVG Export Plug-In . SVG Version: 6.00 Build 0)  -->
<svg version="1.1" id="Capa_1" xmlns="http://www.w3.org/2000/svg" xmlns:xlink="http://www.w3.org/1999/xlink" x="0px" y="0px"
	 viewBox="-46 154.8 522 530" style="enable-background:new -46 154.8 522 530;" xml:space="preserve">
<style type="text/css">
	.st0{fill:#FFA600;stroke:#000000;stroke-width:11;stroke-miterlimit:10;}
	.st1{fill:#FFDB2D;}
	.st2{fill:#FFCA00;}
</style>
<path class="st0" d="M466.8,466.5l-54.8-48.3l52.8-50.4c1.9-1.9,2.7-4.6,2.1-7.2c-0.6-2.6-2.6-4.7-5.2-5.4l-70.3-20.3l26-68.1
	c1-2.5,0.5-5.3-1.2-7.4c-1.7-2.1-4.4-3.1-7-2.7l-72.3,11.7l-5.9-72.6c-0.2-2.7-1.8-5-4.3-6.2c-2.4-1.1-5.3-0.9-7.5,0.6L259,231.7
	l-36.6-63c-1.3-2.3-3.8-3.7-6.5-3.7s-5.2,1.4-6.5,3.7l-42,72.4l-72.7-42c-2.3-1.3-5.2-1.3-7.5,0c-2.3,1.3-3.8,3.8-3.8,6.5l-0.2,72.8
	l-73-6c-2.7-0.2-5.3,1-6.8,3.2c-1.5,2.2-1.8,5-0.6,7.5L34,348.8l-68.5,25.7c-2.5,0.9-4.3,3.1-4.8,5.8c-0.4,2.6,0.6,5.3,2.7,7
	L20,433.4l-50.8,52.4c-1.9,1.9-2.6,4.7-1.8,7.3c0.7,2.6,2.8,4.5,5.4,5.2l71.1,17.6l-23.3,69c-0.9,2.5-0.3,5.3,1.5,7.3
	c1.8,2,4.5,2.9,7.1,2.4l71.8-14.4l8.7,72.3c0.3,2.7,2,4.9,4.5,6c2.5,1.1,5.3,0.7,7.5-0.9l58.6-43.6l39.1,59.6
	c1.4,2.2,3.8,3.5,6.4,3.5c0.1,0,0.2,0,0.3,0c2.7-0.1,5.1-1.6,6.4-4l34.1-62.4l61.8,39c2.3,1.4,5.1,1.5,7.5,0.3
	c2.4-1.2,3.9-3.7,4-6.3l3-72.7l72.7,8.8c2.7,0.3,5.3-0.8,6.9-2.9c1.6-2.1,2-5,0.9-7.4l-28.6-67l69.5-23c2.6-0.8,4.5-3,5-5.6
	C469.8,471,468.8,468.3,466.8,466.5z"/>
<ellipse class="st1" cx="213.4" cy="419.6" rx="155.1" ry="154.9"/>
<path class="st2" d="M213.4,264.6c-3.9,0-7.7,0.1-11.5,0.4c80.3,5.9,143.5,72.8,143.5,154.5c0,81.7-63.3,148.6-143.5,154.5
	c3.8,0.3,7.7,0.4,11.5,0.4c85.6,0,155.1-69.4,155.1-154.9C368.4,334,299,264.6,213.4,264.6z"/>
</svg>
