<svg width="63" height="51" viewBox="0 0 63 51" fill="none" xmlns="http://www.w3.org/2000/svg">
<path d="M62.8333 5.96362C60.5276 6.975 58.0709 7.64537 55.5095 7.97087C58.1445 6.39762 60.1556 3.92537 61.1011 0.9455C58.6444 2.41025 55.9319 3.44488 53.0411 4.02225C50.7084 1.53838 47.3836 0 43.7566 0C36.7196 0 31.0544 5.71175 31.0544 12.7139C31.0544 13.7214 31.1396 14.6901 31.3489 15.6124C20.7818 15.097 11.4314 10.0324 5.15 2.31725C4.05338 4.21988 3.41013 6.39762 3.41013 8.742C3.41013 13.144 5.677 17.0461 9.056 19.3053C7.01388 19.2665 5.0105 18.6736 3.31325 17.7397C3.31325 17.7785 3.31325 17.8289 3.31325 17.8792C3.31325 24.056 7.71913 29.1865 13.4968 30.3684C12.4621 30.6512 11.3345 30.7869 10.1643 30.7869C9.3505 30.7869 8.529 30.7404 7.75788 30.5699C9.40475 35.6035 14.078 39.3041 19.6348 39.4242C15.3103 42.8071 9.81938 44.8454 3.87513 44.8454C2.83275 44.8454 1.833 44.7989 0.833252 44.671C6.46363 48.3019 13.1364 50.375 20.3323 50.375C43.7218 50.375 56.5093 31 56.5093 14.2057C56.5093 13.6439 56.4899 13.1014 56.4628 12.5628C58.9854 10.7725 61.105 8.53662 62.8333 5.96362Z" fill="white"/>
</svg>
