<?xml version="1.0" standalone="no"?>
<!DOCTYPE svg PUBLIC "-//W3C//DTD SVG 20010904//EN"
 "http://www.w3.org/TR/2001/REC-SVG-20010904/DTD/svg10.dtd">
<svg version="1.0" xmlns="http://www.w3.org/2000/svg"
 width="1024.000000pt" height="1024.000000pt" viewBox="0 0 1024.000000 1024.000000"
 preserveAspectRatio="xMidYMid meet">
<metadata>
Created by potrace 1.11, written by Peter Selinger 2001-2013
</metadata>
<g transform="translate(0.000000,1024.000000) scale(0.100000,-0.100000)"
fill="#000000" stroke="none">
<path d="M4978 10180 c-10 -6 -18 -8 -18 -5 0 6 -82 -34 -90 -44 -3 -4 -30
-13 -60 -20 -112 -27 -204 -97 -246 -187 -13 -28 -42 -70 -64 -94 -22 -24 -40
-49 -40 -57 0 -7 -5 -13 -11 -13 -6 0 -9 -5 -7 -12 3 -7 -4 -28 -13 -47 -14
-28 -17 -52 -13 -111 9 -137 10 -255 1 -267 -5 -6 -22 -15 -38 -18 -16 -4 -29
-10 -29 -15 0 -4 -11 -11 -24 -14 -28 -7 -207 -114 -218 -130 -5 -7 -8 -7 -8
-1 0 6 -3 6 -8 0 -4 -6 -27 -26 -52 -45 -127 -99 -251 -224 -335 -340 -22 -30
-43 -56 -47 -58 -5 -2 -8 -9 -8 -16 0 -7 -9 -21 -20 -31 -11 -10 -20 -22 -20
-26 0 -4 -23 -50 -51 -101 -27 -51 -50 -94 -49 -96 0 -1 -7 -19 -16 -40 -19
-45 -63 -169 -69 -197 -2 -11 -11 -49 -20 -85 -18 -70 -24 -105 -29 -161 -2
-20 -5 -41 -8 -45 -2 -5 -4 -26 -3 -46 0 -21 -3 -38 -8 -38 -4 0 -5 -5 -1 -12
7 -10 8 -41 5 -78 -1 -5 -18 -17 -38 -27 -42 -20 -143 -112 -143 -130 0 -7 -3
-13 -7 -13 -9 0 -41 -75 -46 -105 -1 -11 -5 -24 -9 -30 -7 -12 -3 -129 6 -165
21 -89 27 -88 -78 -15 -184 127 -381 226 -558 280 -48 14 -95 28 -105 30 -10
2 -29 6 -43 9 -14 4 -43 9 -65 12 -22 3 -56 7 -75 9 -34 5 -248 6 -322 2 -21
-1 -38 -6 -38 -10 0 -5 -3 -6 -8 -3 -6 4 -44 -2 -127 -19 -11 -3 -51 -16 -90
-31 -38 -14 -74 -27 -80 -28 -37 -8 -222 -118 -275 -165 -96 -84 -240 -251
-240 -279 0 -6 -3 -12 -7 -14 -18 -7 -89 -179 -95 -228 0 -3 -6 -25 -13 -50
-22 -76 -38 -168 -55 -315 -7 -69 -5 -466 3 -515 2 -14 8 -54 12 -90 4 -36 9
-74 12 -85 2 -11 6 -33 9 -50 2 -16 9 -50 14 -75 6 -25 12 -56 14 -70 3 -14 5
-25 6 -25 1 0 3 -9 5 -20 9 -51 94 -324 116 -372 10 -23 19 -46 19 -50 0 -17
97 -235 161 -358 37 -72 99 -184 138 -249 39 -65 69 -122 67 -125 -4 -6 -7
-26 -21 -131 -3 -25 -8 -56 -10 -70 -26 -171 -26 -731 0 -870 2 -14 7 -45 10
-70 13 -99 39 -240 64 -342 5 -21 7 -38 4 -38 -3 0 0 -6 6 -13 6 -8 13 -30 16
-51 4 -20 15 -63 26 -94 11 -31 20 -59 21 -62 1 -8 6 -23 29 -90 37 -112 90
-241 145 -359 30 -62 54 -117 54 -122 0 -5 3 -9 8 -9 4 0 15 -20 25 -44 10
-25 27 -55 38 -67 10 -12 19 -30 19 -41 0 -10 5 -18 10 -18 6 0 14 -10 19 -23
9 -23 50 -90 71 -114 5 -7 10 -17 10 -23 0 -5 5 -10 10 -10 6 0 10 -5 10 -10
0 -9 95 -147 110 -160 3 -3 17 -21 30 -40 56 -82 258 -311 349 -394 18 -17 50
-47 70 -66 20 -20 67 -63 106 -95 38 -33 79 -68 90 -78 11 -10 32 -26 48 -35
15 -9 27 -20 27 -24 0 -4 5 -8 10 -8 5 0 19 -8 29 -18 30 -27 40 -34 136 -97
50 -33 92 -63 93 -67 2 -5 12 -8 23 -8 10 0 19 -4 19 -8 0 -5 10 -14 23 -20
12 -6 54 -30 92 -52 60 -34 233 -121 330 -165 66 -31 133 -58 205 -82 41 -14
81 -30 88 -36 6 -5 12 -7 12 -3 0 4 13 0 30 -9 16 -9 30 -13 30 -11 0 3 19 -2
43 -10 23 -9 50 -17 61 -19 10 -3 42 -11 70 -19 28 -8 65 -18 81 -21 40 -8 60
-13 60 -15 0 -1 9 -3 20 -4 11 -2 47 -8 80 -15 105 -20 119 -22 155 -27 19 -3
49 -7 65 -9 32 -5 92 -11 220 -22 112 -9 408 -8 545 2 63 4 127 9 141 10 14 1
30 4 35 6 5 3 19 4 32 3 12 0 22 1 22 5 0 3 15 6 33 7 30 1 69 6 127 19 14 3
41 8 60 11 19 3 53 10 75 15 22 5 48 11 57 14 70 16 254 68 263 73 5 3 15 7
20 8 23 4 273 98 334 125 91 42 287 141 341 173 25 15 53 29 63 33 9 3 17 9
17 14 0 5 5 9 11 9 6 0 38 18 71 40 33 22 64 40 68 40 5 0 10 4 12 8 2 4 32
28 68 52 36 25 76 55 90 68 14 12 28 22 32 22 3 0 13 6 20 13 7 7 35 30 63 52
27 22 67 56 88 75 21 19 55 50 75 69 170 155 308 309 461 511 39 52 75 100 81
107 5 7 10 15 10 18 0 3 16 27 35 54 19 26 35 53 35 60 0 6 4 11 8 11 5 0 16
15 25 32 9 18 32 60 52 93 79 136 228 450 240 506 2 9 8 25 13 35 21 38 87
252 119 379 29 118 32 132 39 174 3 18 8 43 10 55 2 11 7 37 10 56 4 19 8 44
11 55 4 20 10 73 18 150 2 22 8 69 12 105 16 137 9 561 -13 740 -2 19 -6 50
-8 69 -4 35 14 77 60 138 13 17 24 35 24 38 0 4 8 19 19 33 17 25 70 120 110
197 9 16 20 33 24 36 5 3 8 9 8 13 -1 3 21 52 49 109 27 57 50 108 50 115 0 7
5 12 12 12 6 0 9 3 5 6 -3 3 6 32 20 63 13 31 26 61 27 66 2 6 6 19 10 30 5
11 12 34 18 50 5 17 14 39 18 50 5 11 14 38 20 60 6 22 14 47 17 55 3 8 7 20
8 25 2 6 11 39 20 75 9 36 19 72 20 80 2 8 4 15 5 15 1 0 3 9 5 20 7 45 14 84
29 160 45 239 54 564 22 800 -3 22 -7 56 -10 75 -2 19 -10 58 -16 85 -6 28
-13 57 -15 65 -25 110 -35 141 -77 230 -34 71 -107 172 -183 254 -16 17 -98
86 -160 134 -41 32 -253 142 -274 142 -4 0 -42 11 -84 24 -41 13 -95 27 -119
31 -24 4 -54 8 -68 11 -113 18 -276 22 -380 10 -36 -4 -78 -9 -95 -11 -16 -2
-57 -11 -90 -20 -33 -9 -67 -18 -75 -20 -70 -16 -275 -109 -378 -172 -113 -68
-238 -156 -254 -178 -11 -14 -9 12 2 60 18 71 23 109 22 163 -1 59 -36 185
-58 206 -8 8 -14 19 -14 25 0 16 -98 108 -128 120 -24 10 -27 17 -28 64 -2 86
-13 200 -23 234 -5 17 -7 33 -5 36 2 2 -2 22 -10 45 -8 22 -13 42 -10 44 4 4
-8 47 -24 88 -3 8 -6 17 -7 20 -1 3 -7 25 -15 50 -7 25 -17 49 -22 55 -4 5 -8
15 -8 22 0 31 -176 352 -210 383 -3 3 -30 37 -61 75 -69 86 -180 196 -262 258
-16 12 -35 28 -42 35 -8 6 -18 12 -23 12 -6 0 -12 4 -14 9 -5 14 -157 105
-244 147 l-82 38 0 56 c-1 95 -10 274 -14 290 -23 86 -62 163 -105 206 -21 21
-45 53 -53 69 -22 47 -60 83 -125 123 -33 20 -63 41 -67 46 -4 6 -8 8 -8 4 0
-3 -19 -1 -42 6 -24 6 -52 11 -63 11 -11 0 -22 2 -25 5 -3 3 -23 14 -44 24
-47 22 -221 33 -248 16z"/>
</g>
</svg>
